{"glyphs":{"0":{"ha":1151,"x_min":88,"x_max":1153,"o":"m 489 367 l 339 229 l 88 506 l 406 797 l 408 826 l 292 899 l 293 915 l 708 915 l 1153 435 l 683 0 l 550 0 l 357 211 l 506 349 l 669 169 l 931 413 l 578 794 l 315 554 l 489 367 z "},"1":{"ha":567,"x_min":93,"x_max":468,"o":"m 269 857 q 258 871 269 864 l 172 915 l 175 936 l 446 964 l 468 943 l 400 154 l 207 154 l 269 854 l 269 857 m 444 -68 q 93 1 297 -1 l 94 21 q 203 97 200 51 l 207 128 l 399 128 l 390 40 l 468 -46 l 444 -68 z "},"2":{"ha":954,"x_min":139,"x_max":938,"o":"m 938 915 l 936 897 l 807 863 l 803 814 l 833 643 q 509 479 625 556 q 361 311 393 403 l 197 343 q 654 632 292 479 l 624 746 q 404 863 550 863 l 356 863 l 286 651 l 235 651 l 235 915 l 938 915 m 351 285 q 335 193 335 235 q 358 113 335 143 l 710 113 l 789 351 l 826 351 l 794 0 l 164 0 q 139 136 139 67 q 149 228 139 176 q 182 319 158 279 l 351 285 z "},"3":{"ha":946,"x_min":114,"x_max":874,"o":"m 439 769 l 642 925 l 874 726 l 856 701 q 649 768 685 768 q 640 763 642 768 q 638 753 638 757 q 647 731 638 740 q 818 522 818 560 q 815 515 818 518 l 639 404 l 815 271 q 856 235 842 251 q 869 200 869 218 q 819 126 869 160 l 731 83 l 658 140 l 697 163 l 428 374 l 622 488 q 639 504 639 497 q 631 518 639 511 l 415 733 l 378 678 q 371 658 371 667 q 399 642 371 642 l 410 642 l 407 619 q 197 651 197 619 q 201 661 197 654 l 360 906 q 361 911 361 907 q 354 919 361 917 l 254 940 l 256 958 l 554 981 l 568 965 l 439 769 m 133 446 l 599 107 l 633 125 l 704 71 l 439 -43 l 114 225 l 133 446 z "},"4":{"ha":908,"x_min":142,"x_max":893,"o":"m 797 850 q 785 833 786 843 l 718 79 q 749 57 731 64 l 758 57 l 758 21 q 578 -22 663 1 q 415 -74 493 -46 l 415 -33 l 522 33 l 554 386 q 480 376 518 381 q 403 372 442 372 q 310 376 357 372 q 226 395 264 381 q 165 438 189 410 q 142 514 142 465 q 160 592 142 556 q 201 660 178 629 q 244 718 224 692 q 272 765 265 744 l 415 693 q 394 661 407 681 q 368 619 381 642 q 347 576 356 597 q 338 540 338 554 q 352 498 338 517 q 389 467 367 479 q 438 447 411 454 q 489 440 465 440 q 531 446 511 440 q 560 464 550 451 l 600 922 l 626 943 l 893 915 l 892 894 l 797 850 m 289 788 q 308 823 301 808 q 315 853 315 838 q 297 883 315 872 q 233 901 278 894 l 236 943 l 461 915 q 496 893 485 904 q 507 865 507 882 q 490 815 507 846 q 443 736 474 785 l 431 717 l 289 788 z "},"5":{"ha":981,"x_min":129,"x_max":949,"o":"m 772 522 q 842 213 842 350 q 790 0 842 97 l 499 0 l 275 244 l 258 250 l 169 3 l 129 3 l 161 351 l 414 351 l 617 129 q 669 296 669 182 q 666 358 669 324 q 656 432 663 392 l 529 432 l 536 522 l 772 522 m 949 965 l 758 678 q 751 658 751 661 q 779 642 751 642 l 792 642 l 789 619 q 578 651 578 619 q 582 661 578 654 l 708 858 q 460 746 532 838 l 358 522 l 511 522 l 503 432 l 194 432 l 168 461 l 293 814 l 297 863 l 174 897 l 175 915 l 740 915 q 735 919 740 918 l 636 940 l 638 958 l 928 983 l 949 965 z "},"6":{"ha":1007,"x_min":131,"x_max":939,"o":"m 939 304 l 932 228 l 547 -32 l 385 147 l 553 282 l 682 142 l 788 207 l 549 492 l 436 410 l 533 301 l 367 167 l 131 428 l 135 483 l 604 825 l 592 867 l 456 893 l 457 915 l 757 915 l 785 857 l 328 529 l 393 457 l 638 631 l 939 304 z "},"7":{"ha":890,"x_min":176,"x_max":879,"o":"m 879 915 l 878 897 l 749 863 l 744 814 l 774 643 q 508 487 606 567 q 381 317 411 407 l 239 339 q 596 632 321 479 l 565 746 q 346 863 492 863 l 296 863 l 228 651 l 176 651 l 176 915 l 879 915 m 374 290 q 369 249 369 267 q 500 0 369 121 l 208 0 q 185 136 185 68 q 196 224 185 182 q 225 315 207 265 l 374 290 z "},"8":{"ha":919,"x_min":107,"x_max":882,"o":"m 578 635 l 721 751 l 882 657 l 878 603 l 601 439 l 854 335 l 842 200 l 400 -36 l 107 138 l 119 257 l 360 371 l 138 472 l 143 550 l 400 731 q 413 756 413 744 q 392 772 413 772 q 372 769 386 772 l 186 701 l 174 726 l 446 915 l 699 765 l 554 646 l 464 694 l 297 576 l 538 461 l 713 564 l 578 635 m 429 347 l 251 267 l 546 118 l 733 211 l 429 347 z "},"9":{"ha":1007,"x_min":147,"x_max":957,"o":"m 447 271 l 147 611 l 154 688 l 539 946 l 957 488 l 951 432 l 765 294 l 713 353 l 758 386 l 406 772 l 299 707 l 619 338 l 403 199 l 383 226 l 447 271 m 631 22 l 629 0 l 329 0 l 301 58 l 690 338 l 743 279 l 482 90 l 494 49 l 631 22 z "}," ":{"ha":293,"x_min":0,"x_max":0,"o":""},"!":{"ha":568,"x_min":144,"x_max":557,"o":"m 267 826 q 171 897 267 865 l 172 919 q 536 986 378 919 l 557 964 l 464 878 l 438 581 l 246 581 l 267 826 m 453 36 l 293 -39 l 144 36 l 157 171 l 314 247 l 465 167 l 453 36 m 164 269 l 207 313 l 225 347 l 243 554 l 435 554 l 417 344 l 431 315 l 474 269 l 471 235 l 318 299 l 161 233 l 164 269 z "},"\"":{"ha":575,"x_min":182,"x_max":563,"o":"m 354 625 q 365 736 360 674 q 371 882 369 799 q 276 625 333 726 l 197 625 q 206 699 203 663 q 208 769 208 735 q 182 971 208 878 l 563 971 q 433 625 547 829 l 354 625 z "},"$":{"ha":957,"x_min":151,"x_max":944,"o":"m 747 115 l 490 115 l 294 328 l 276 333 l 192 118 l 151 118 l 172 357 l 490 357 l 621 210 l 640 421 l 507 421 l 514 511 l 781 511 l 747 115 m 621 715 q 513 687 565 713 q 422 599 460 661 l 369 511 l 489 511 l 481 421 l 206 421 l 179 449 l 279 665 l 283 715 l 160 750 l 161 768 l 657 768 l 621 715 m 754 635 q 747 615 747 621 q 774 599 747 599 l 786 599 l 785 576 q 574 608 574 576 q 576 618 574 613 l 736 863 q 738 868 738 864 q 729 876 738 874 l 631 897 l 632 915 l 924 940 l 944 922 l 754 635 m 553 813 l 440 813 l 449 917 l 561 917 l 553 813 m 482 -26 l 367 -26 l 376 76 l 490 76 l 482 -26 z "},"%":{"ha":1240,"x_min":96,"x_max":1224,"o":"m 485 449 l 351 449 l 185 629 l 369 797 l 372 826 l 254 899 l 256 915 l 672 915 l 819 760 l 485 449 m 839 468 l 972 468 l 1139 288 l 954 119 l 951 90 l 1069 18 l 1068 1 l 651 1 l 504 157 l 839 468 m 610 489 l 690 401 l 276 0 l 96 0 l 610 489 m 629 510 l 1056 915 l 1224 915 l 710 421 l 629 510 m 496 593 l 621 711 l 511 828 l 385 711 l 496 593 m 829 324 l 704 206 l 813 89 l 940 206 l 829 324 z "},"&":{"ha":872,"x_min":113,"x_max":793,"o":"m 560 146 q 532 252 544 194 q 511 378 519 310 l 296 272 l 400 222 l 296 60 l 147 126 q 119 154 126 136 q 113 189 113 172 q 128 232 113 211 q 178 271 143 253 l 492 433 l 199 433 q 180 438 186 433 q 174 449 174 443 q 190 475 174 458 q 438 765 438 740 q 421 772 431 772 q 400 769 414 772 l 214 701 l 201 726 l 468 925 l 611 796 l 328 494 l 750 494 l 749 460 q 701 453 724 458 q 657 431 678 447 q 692 169 657 283 l 771 199 l 793 163 l 707 125 q 779 0 739 54 l 631 0 q 590 74 607 35 l 429 3 l 319 50 l 424 211 l 560 146 z "},"'":{"ha":526,"x_min":151,"x_max":514,"o":"m 151 625 q 271 908 249 760 l 208 935 l 211 971 l 514 971 q 272 621 415 747 l 151 625 z "},"(":{"ha":825,"x_min":217,"x_max":574,"o":"m 440 -307 q 338 -149 381 -233 q 269 29 296 -64 q 229 222 242 122 q 217 426 217 322 l 401 407 q 411 236 401 322 q 442 67 421 150 q 494 -94 463 -17 q 568 -239 525 -172 l 440 -307 m 574 1019 q 510 901 539 967 q 458 760 481 835 q 423 602 436 685 q 406 433 410 519 l 222 454 q 250 638 229 549 q 301 805 271 726 q 372 948 332 883 q 457 1060 411 1013 l 574 1019 z "},")":{"ha":825,"x_min":218,"x_max":575,"o":"m 351 1061 q 453 903 411 988 q 523 725 496 818 q 563 532 550 632 q 575 328 575 432 l 390 347 q 381 518 390 432 q 350 688 371 604 q 298 849 329 771 q 224 993 267 926 l 351 1061 m 218 -265 q 334 -6 289 -158 q 386 321 379 147 l 569 300 q 542 117 563 206 q 490 -51 521 28 q 420 -194 460 -129 q 335 -306 381 -258 l 218 -265 z "},",":{"ha":526,"x_min":82,"x_max":446,"o":"m 82 -160 q 201 124 178 -25 l 140 150 l 143 186 l 446 186 q 204 -164 347 -39 l 82 -160 z "},"-":{"ha":565,"x_min":129,"x_max":504,"o":"m 504 414 l 483 351 l 129 351 l 150 414 l 504 414 z "},".":{"ha":499,"x_min":99,"x_max":419,"o":"m 111 176 l 272 251 l 419 176 l 407 46 l 242 -33 l 99 42 l 111 176 z "},"/":{"ha":674,"x_min":21,"x_max":708,"o":"m 110 -54 l 21 3 l 619 924 l 708 865 l 110 -54 z "},":":{"ha":501,"x_min":100,"x_max":450,"o":"m 142 529 l 304 604 l 450 529 l 440 399 l 272 322 l 131 394 l 142 529 m 113 176 l 272 251 l 421 176 l 408 46 l 243 -33 l 100 42 l 113 176 z "},";":{"ha":533,"x_min":81,"x_max":485,"o":"m 81 -160 q 200 124 176 -25 l 139 150 l 142 186 l 446 186 q 203 -164 346 -40 l 81 -160 m 176 529 l 338 604 l 485 529 l 474 399 l 307 318 l 164 394 l 176 529 z "},"=":{"ha":513,"x_min":121,"x_max":458,"o":"m 444 336 l 424 272 l 121 272 l 142 336 l 444 336 m 458 492 l 438 429 l 136 429 l 157 492 l 458 492 z "},"?":{"ha":890,"x_min":175,"x_max":878,"o":"m 876 897 l 747 863 l 743 814 l 772 643 q 594 536 660 589 q 493 432 529 483 l 364 481 q 457 556 403 519 q 594 632 511 592 q 558 751 585 706 q 497 821 532 796 q 421 854 461 846 q 344 863 381 863 l 294 863 l 226 651 l 175 651 l 175 915 l 878 915 l 876 897 m 479 410 q 458 329 458 361 q 465 292 458 310 q 349 233 413 257 q 233 203 286 208 q 245 261 239 231 q 263 324 251 292 q 293 391 274 357 q 344 461 313 425 l 479 410 m 272 0 q 243 111 250 58 q 248 110 246 111 q 256 110 250 110 q 322 126 283 110 q 403 161 361 142 l 467 192 q 494 91 476 138 q 542 0 511 44 l 272 0 z "},"@":{"ha":1288,"x_min":161,"x_max":1090,"o":"m 631 542 l 631 521 q 623 464 631 488 q 606 421 615 440 q 590 383 597 401 q 582 344 582 365 q 592 313 582 322 q 614 303 601 303 q 642 311 628 303 q 665 333 657 319 l 678 428 l 814 418 l 814 414 q 824 320 814 360 q 858 281 835 281 q 895 301 879 281 q 922 352 911 322 q 939 413 933 382 q 944 465 944 444 q 936 625 944 563 q 899 724 928 688 q 815 774 871 760 q 667 789 760 789 q 542 774 601 789 q 434 717 482 758 q 354 602 386 675 q 313 415 322 529 l 167 426 q 232 680 182 572 q 355 860 282 788 q 516 967 428 932 q 697 1003 604 1003 q 989 901 897 1003 q 1081 610 1081 800 q 1078 526 1081 575 q 1069 423 1076 476 q 1046 316 1061 369 q 1006 221 1031 263 q 944 153 981 179 q 854 126 907 126 q 721 217 754 126 q 638 178 681 194 q 556 161 596 161 q 517 168 538 161 q 478 190 496 175 q 449 231 461 206 q 438 292 438 256 q 448 358 438 326 q 471 422 458 390 q 494 488 483 454 q 504 557 504 521 q 503 583 504 569 q 497 611 501 596 l 531 669 l 872 657 l 869 619 q 849 601 858 617 q 833 561 840 585 q 820 508 825 538 q 814 447 815 478 l 682 456 l 694 539 l 631 542 m 310 329 q 338 199 310 256 q 417 101 365 142 q 544 40 469 61 q 711 19 618 19 q 835 28 769 19 q 972 56 900 36 l 1028 117 l 1090 108 l 917 -189 q 801 -193 856 -193 q 472 -149 597 -193 q 277 -33 346 -104 q 185 128 208 39 q 161 306 161 217 q 161 353 161 329 q 164 399 161 376 l 311 388 q 310 358 310 372 q 310 329 310 344 z "},"A":{"ha":1317,"x_min":43,"x_max":1285,"o":"m 635 489 l 446 228 q 440 207 440 217 q 468 192 440 192 l 586 192 q 698 476 644 318 q 800 833 751 635 q 803 839 803 839 q 794 850 803 846 l 721 894 l 728 915 l 1007 943 l 1033 922 q 1032 899 1032 913 q 1032 854 1032 886 q 1038 706 1032 779 q 1056 563 1044 633 l 951 533 q 941 651 946 592 q 933 778 936 711 q 778 192 879 443 q 881 260 875 192 l 890 379 l 917 379 q 940 250 924 308 q 981 142 956 192 l 758 142 q 735 91 747 117 q 710 40 724 65 l 767 -46 l 735 -68 q 403 1 608 0 l 408 21 q 472 43 447 32 q 510 65 496 54 q 533 90 525 76 q 550 119 542 103 l 563 143 q 265 179 265 143 q 268 185 265 179 l 426 431 q 428 436 428 432 q 421 444 428 442 l 321 465 l 322 483 l 614 508 l 635 489 m 1058 536 q 1285 -67 1115 211 l 842 50 l 860 75 q 930 67 899 69 q 985 64 961 64 q 1061 92 1061 64 l 1061 96 q 998 275 1025 175 q 954 489 971 375 l 1058 536 m 281 447 l 49 490 l 43 522 l 238 624 l 219 563 l 690 626 l 663 543 l 236 504 l 281 447 z "},"B":{"ha":1169,"x_min":63,"x_max":1097,"o":"m 875 238 q 821 296 842 274 q 789 333 800 318 q 772 363 778 349 q 765 396 767 376 q 732 401 749 401 q 720 401 725 401 q 714 400 715 400 l 704 288 l 511 288 l 560 833 q 560 838 560 836 q 561 843 561 840 q 535 869 561 865 q 318 838 318 869 q 319 835 318 836 q 319 833 319 835 l 461 572 l 438 554 l 151 578 l 153 597 q 264 631 267 619 l 149 876 q 142 899 142 890 q 150 910 142 904 q 176 918 158 917 l 1022 943 l 1019 907 q 956 890 974 900 q 938 861 938 881 q 972 787 938 836 q 1051 653 1006 738 q 1063 603 1063 628 q 1052 549 1063 575 q 1024 499 1042 522 q 983 457 1007 476 q 935 425 960 438 q 966 373 940 396 q 1021 324 992 350 q 1074 265 1050 299 q 1097 181 1097 231 q 1066 82 1097 119 q 989 24 1035 44 q 890 -2 943 4 q 790 -8 836 -8 q 611 20 685 -8 q 494 83 538 49 l 510 261 l 701 261 l 688 97 q 722 76 700 83 q 771 69 744 69 q 819 75 794 69 q 863 92 843 81 q 896 121 883 104 q 908 161 908 138 q 898 203 908 185 q 875 238 888 222 m 203 310 l 156 240 l 63 464 l 88 496 l 313 418 l 249 365 l 396 232 l 419 485 l 468 490 l 435 75 l 203 310 m 872 599 q 852 642 865 619 q 826 688 839 664 q 804 740 814 713 q 794 797 794 767 q 807 865 794 829 l 753 858 l 724 503 q 778 474 738 474 q 811 479 793 474 q 844 495 829 485 q 870 522 860 506 q 881 558 881 538 q 872 599 881 575 z "},"C":{"ha":1339,"x_min":33,"x_max":1342,"o":"m 603 908 l 624 890 l 436 629 q 431 613 431 619 q 450 599 431 599 l 463 599 l 899 925 l 1042 796 l 821 593 q 788 533 788 561 q 792 513 788 522 l 865 376 l 717 265 l 608 456 q 599 470 603 464 q 594 485 594 476 q 608 514 594 500 q 868 764 868 743 l 868 765 q 843 774 861 774 q 826 772 838 774 q 807 765 814 769 l 276 421 q 239 417 253 417 q 186 458 186 417 q 187 474 186 465 q 194 494 188 483 l 417 832 q 418 838 418 833 q 410 844 418 842 l 311 865 l 313 883 l 603 908 m 489 397 l 199 210 l 269 163 l 51 131 l 33 154 l 142 333 l 165 256 l 513 476 l 794 -18 l 726 -43 l 489 397 m 879 354 l 983 165 l 1189 328 l 1231 267 l 882 -19 l 729 243 l 879 354 m 1342 965 l 1151 678 q 1144 658 1144 661 q 1172 642 1144 642 l 1185 642 l 1182 619 q 971 651 971 619 q 975 661 971 654 l 1135 906 q 1136 911 1136 907 q 1128 919 1136 917 l 1029 940 l 1031 958 l 1321 983 l 1342 965 z "},"D":{"ha":1433,"x_min":103,"x_max":1450,"o":"m 779 864 l 592 603 q 585 582 585 589 q 613 567 585 567 l 914 567 l 882 206 l 981 124 l 1264 357 l 1099 506 l 1243 638 l 1450 463 l 1446 407 l 907 -43 l 707 72 l 746 518 q 411 554 411 518 q 413 556 413 554 q 414 560 413 557 l 572 806 q 574 811 574 807 q 565 818 574 815 l 467 839 l 468 858 l 758 882 l 779 864 m 1183 915 l 1182 893 l 1040 867 l 1019 825 l 1224 653 l 1081 522 l 776 803 l 889 915 l 1183 915 m 632 413 l 261 413 l 283 319 l 103 426 l 107 450 l 332 554 l 276 471 l 692 471 l 658 82 l 601 79 l 632 413 z "},"E":{"ha":1247,"x_min":74,"x_max":1225,"o":"m 521 908 l 542 890 l 354 629 q 349 613 349 619 q 368 599 349 599 l 381 599 l 800 914 l 925 796 q 704 565 704 596 q 707 561 704 564 l 775 525 l 596 421 l 489 472 q 478 492 478 483 q 490 514 478 503 q 750 764 750 743 l 750 765 q 733 772 743 772 q 724 772 729 772 q 713 769 719 771 l 224 440 q 187 422 204 428 q 157 417 169 417 q 104 458 104 417 q 106 476 104 465 q 115 497 108 486 l 335 832 q 336 838 336 833 q 328 844 336 842 l 228 865 l 229 883 l 521 908 m 803 511 l 960 432 l 610 272 l 776 204 l 1200 385 l 1183 200 l 743 3 l 461 126 q 425 189 425 156 q 490 271 425 236 l 701 371 l 622 407 l 803 511 m 1225 965 l 1033 678 q 1028 658 1028 665 q 1056 642 1028 642 l 1067 642 l 1064 619 q 854 651 854 619 q 858 661 854 654 l 1017 906 q 1018 911 1018 907 q 1011 919 1018 917 l 911 940 l 913 958 l 1204 983 l 1225 965 m 346 133 l 86 88 l 74 118 l 210 317 l 233 250 l 476 410 l 561 379 l 281 203 l 346 133 z "},"F":{"ha":1357,"x_min":74,"x_max":1389,"o":"m 447 618 q 457 628 457 619 l 342 876 q 335 899 335 890 q 369 918 335 917 l 929 943 l 953 922 l 949 879 l 1368 983 l 1389 965 l 1199 678 q 1192 658 1192 661 q 1219 642 1192 642 l 1231 642 l 1229 619 q 1018 651 1018 619 q 1022 661 1018 654 l 1165 878 q 1158 886 1165 883 l 946 835 l 919 542 l 1210 542 l 1117 306 l 1090 306 q 1094 392 1094 357 q 1071 479 1094 479 l 914 479 l 900 315 l 707 315 l 753 833 q 710 869 750 869 q 511 838 511 869 q 512 835 511 836 q 513 833 513 835 l 654 572 l 631 554 l 344 578 l 346 597 l 447 618 m 579 21 q 688 97 685 51 l 706 289 l 897 289 l 876 40 l 954 -46 l 929 -68 q 767 -17 854 -33 q 578 1 679 0 l 579 21 m 588 453 l 233 507 l 233 418 l 74 540 l 78 571 l 324 629 l 253 554 l 649 504 l 624 142 l 563 128 l 588 453 z "},"G":{"ha":1415,"x_min":68,"x_max":1389,"o":"m 872 394 q 940 265 904 324 q 1031 165 975 207 l 1113 229 q 1017 397 1063 325 q 929 521 971 468 l 1226 521 l 1224 492 l 1163 483 l 1157 463 q 1253 297 1206 392 q 1350 75 1301 201 l 1082 -131 l 1075 -256 l 1054 -264 l 979 -121 l 1196 38 q 1174 103 1186 72 q 1147 160 1163 133 l 929 -19 q 690 293 774 78 l 872 394 m 690 819 l 503 558 q 496 538 496 544 q 524 522 496 522 l 664 522 q 915 764 915 743 l 915 765 q 899 772 908 772 q 878 769 892 772 l 692 701 l 679 726 l 946 925 l 1089 796 l 868 593 q 836 533 836 568 q 845 477 836 508 q 864 418 854 446 l 682 317 q 657 393 668 354 q 638 474 646 432 q 322 510 322 474 q 325 515 322 513 l 483 761 q 485 767 485 763 q 476 774 485 771 l 378 794 l 381 814 l 669 838 l 690 819 m 1199 678 q 1192 658 1192 661 q 1219 642 1192 642 l 1231 642 l 1229 619 q 1018 651 1018 619 q 1022 661 1018 654 l 1182 906 q 1183 911 1183 907 q 1175 919 1183 917 l 1076 940 l 1076 958 l 1368 983 l 1389 965 l 1199 678 m 210 379 l 256 276 l 68 389 l 69 410 l 276 519 l 215 426 l 601 426 l 621 379 l 210 379 z "},"H":{"ha":1217,"x_min":-197,"x_max":1217,"o":"m 481 735 l 276 453 q 272 442 272 447 q 271 432 271 436 q 292 417 271 417 q 330 424 308 417 q 367 435 351 431 q 458 458 414 447 q 546 479 503 469 l 572 775 q 560 791 568 786 q 532 797 551 796 l 532 835 q 596 869 553 850 q 695 904 639 888 q 817 932 751 921 q 949 943 883 943 q 1041 934 993 943 q 1128 910 1089 925 q 1192 876 1167 894 q 1217 838 1217 857 q 1198 808 1217 821 q 1156 786 1179 796 q 1115 767 1133 776 q 1096 749 1096 758 q 1122 724 1096 736 l 1121 682 l 897 714 q 883 729 883 722 q 901 747 883 739 q 939 765 918 756 q 977 783 960 774 q 994 806 994 793 q 960 839 994 824 q 881 854 925 854 q 814 846 846 854 q 768 821 782 838 l 742 529 q 815 539 776 535 q 893 543 854 543 q 984 540 938 543 q 1068 522 1031 536 q 1130 478 1106 507 q 1154 397 1154 449 q 1145 342 1154 369 q 1122 290 1136 315 q 1090 240 1107 264 q 1057 199 1074 217 l 908 272 q 940 322 924 293 q 957 375 957 351 q 942 417 957 399 q 906 449 928 436 q 857 468 883 461 q 806 475 831 475 q 765 469 783 475 q 735 451 746 464 l 696 -7 l 668 -28 l 403 0 l 403 21 q 511 82 508 71 l 542 429 q 444 407 494 419 q 344 382 393 394 q 248 357 294 369 q 164 333 201 344 q 150 332 160 332 l 138 332 q 85 365 85 332 q 97 410 85 382 l 272 676 q 274 682 274 678 q 267 689 274 686 l 168 710 l 169 729 l 460 753 l 481 735 m 3 197 l 58 143 l -187 143 l -197 179 l 13 338 l -4 246 l 481 381 l 490 322 l 3 197 m 1040 175 q 994 106 1008 131 q 979 64 979 81 q 1061 14 979 29 l 1058 -28 l 835 0 q 799 17 808 3 q 789 49 789 32 q 817 120 789 75 q 897 250 844 165 l 1040 175 z "},"I":{"ha":697,"x_min":-36,"x_max":657,"o":"m 301 581 l 492 581 l 449 86 l 499 86 l 528 100 l 599 236 l 615 225 l 560 0 l 131 0 l 115 226 l 135 238 l 182 101 l 207 88 l 258 88 l 301 581 m 304 607 l 325 829 l 274 829 l 246 815 l 174 679 l 157 690 l 211 915 l 642 915 l 657 689 l 638 678 l 592 814 l 564 828 l 513 828 l 494 607 l 304 607 m 149 404 l 179 324 l -36 418 l -33 446 l 197 533 l 154 457 l 260 457 l 256 404 l 149 404 z "},"J":{"ha":1028,"x_min":15,"x_max":975,"o":"m 885 943 q 867 731 874 829 q 860 546 860 633 q 865 404 860 469 q 885 283 871 339 l 715 174 q 674 575 674 333 q 676 703 674 638 q 685 839 679 768 l 685 847 q 675 871 685 865 l 589 915 l 592 936 l 863 964 l 885 943 m 785 11 q 722 149 747 65 l 890 257 q 975 75 922 140 q 608 -262 822 -144 l 443 -79 l 318 -114 l 300 -97 q 424 -14 367 -56 q 531 72 481 28 l 675 -89 q 785 11 746 -53 m 185 -72 q 299 2 240 -36 q 417 83 358 40 q 533 176 475 126 q 643 288 590 226 l 654 229 q 447 47 554 133 q 213 -110 339 -39 l 271 -151 l 24 -194 l 15 -167 l 176 -6 l 185 -72 z "},"K":{"ha":1351,"x_min":96,"x_max":1336,"o":"m 342 618 q 351 628 351 619 l 236 876 q 231 888 233 883 q 228 899 228 893 q 264 918 228 915 l 822 943 l 846 922 q 854 843 854 903 q 844 660 854 776 q 813 376 835 544 l 1121 797 l 1124 826 l 1007 899 l 1008 915 l 1336 915 l 1335 892 l 981 458 q 1022 385 1000 421 q 1068 319 1043 350 l 938 163 q 808 338 860 242 q 789 197 799 271 q 769 40 779 124 l 847 -46 l 822 -68 q 736 -35 782 -49 q 642 -12 690 -22 l 461 -12 l 465 35 l 514 35 q 581 97 578 61 q 636 495 618 335 q 654 747 654 656 q 646 847 654 815 q 607 878 638 878 q 406 838 406 869 q 406 835 406 836 q 407 833 407 835 l 549 572 l 525 554 l 239 578 l 240 597 l 342 618 m 1121 0 q 1034 69 1076 33 q 956 143 992 106 l 1085 300 q 1199 199 1136 242 l 1247 281 l 1279 281 l 1254 0 l 1121 0 m 308 276 l 96 386 l 100 415 l 346 471 l 306 407 l 578 389 l 574 343 l 294 343 l 308 276 z "},"L":{"ha":1206,"x_min":-103,"x_max":1113,"o":"m 738 67 q 869 42 772 42 l 890 42 q 911 43 904 42 q 868 104 886 67 q 838 185 850 142 q 821 272 826 228 q 815 356 815 317 q 816 388 815 374 q 819 415 817 403 l 1079 435 q 1088 406 1085 419 q 1061 404 1076 406 q 1031 398 1046 403 q 1006 384 1017 393 q 996 361 996 375 q 1002 295 996 338 q 1022 203 1008 253 q 1058 99 1036 153 q 1113 0 1081 46 l 496 0 l 501 35 l 511 35 q 533 40 522 35 q 546 57 544 46 l 596 632 l 788 632 l 738 67 m 263 611 q 272 621 272 613 l 156 869 q 150 881 153 876 q 147 892 147 886 q 156 905 147 899 q 183 911 165 911 l 901 931 l 901 889 q 903 864 901 871 l 807 858 l 790 658 l 599 658 l 614 833 q 565 869 610 865 q 325 831 325 863 q 326 828 325 829 q 326 826 326 828 l 468 565 l 446 547 l 158 572 l 161 590 l 263 611 m 57 504 l 57 429 l -103 557 l -93 583 l 121 615 l 76 554 l 536 485 l 538 429 l 57 504 z "},"M":{"ha":2032,"x_min":122,"x_max":1972,"o":"m 517 629 q 526 640 526 631 l 410 888 q 403 910 403 904 q 438 929 403 928 l 1022 964 l 1044 943 l 985 247 q 1151 633 1061 458 q 1344 946 1240 807 l 1492 964 l 1514 943 q 1518 847 1518 897 q 1468 404 1518 671 q 1779 946 1621 742 l 1949 964 l 1971 943 q 1972 922 1972 932 q 1972 901 1972 913 l 1972 857 q 1965 635 1972 757 q 1940 358 1957 513 l 1742 358 q 1763 572 1756 485 q 1771 714 1771 660 q 1770 740 1771 729 q 1768 763 1769 751 q 1256 -117 1644 635 q 1316 414 1296 210 q 1336 710 1336 618 q 1335 741 1336 729 q 1333 763 1335 753 q 968 54 1208 640 l 967 40 l 1044 -46 l 1019 -68 q 672 0 878 0 l 674 38 q 778 97 776 74 l 844 858 q 846 865 846 860 q 825 893 846 882 q 581 853 581 885 q 581 851 581 851 q 582 849 582 850 l 724 583 l 700 565 l 414 590 l 415 608 l 517 629 m 1708 93 q 1725 219 1718 160 q 1739 333 1732 278 l 1938 333 q 1913 141 1926 242 q 1882 -71 1899 40 q 1735 -10 1811 -36 q 1571 32 1658 15 l 1582 64 q 1615 59 1600 61 q 1643 57 1629 57 q 1708 93 1706 57 m 267 540 l 279 456 l 122 565 l 129 583 l 353 640 l 293 578 l 789 531 l 781 482 l 267 540 z "},"N":{"ha":1490,"x_min":96,"x_max":1417,"o":"m 467 604 q 474 614 474 607 l 358 863 q 351 885 351 879 q 386 904 351 904 l 944 943 l 968 922 l 931 511 q 1215 925 1060 796 l 1388 943 l 1411 922 q 1415 847 1414 883 q 1417 772 1417 811 q 1404 531 1417 651 l 1222 531 q 1235 665 1231 597 q 1239 808 1239 733 q 915 329 1100 739 l 890 40 l 968 -46 l 944 -68 q 596 0 817 -8 l 599 42 q 674 58 647 44 q 703 97 700 71 l 768 833 q 733 878 767 868 q 529 825 529 863 q 530 822 529 824 q 531 819 531 821 l 671 558 l 647 540 l 361 565 l 363 583 l 467 604 m 1094 93 q 1169 291 1139 190 q 1217 504 1200 392 l 1401 504 q 1272 -71 1369 214 q 956 32 1147 1 l 968 64 q 1000 59 986 61 q 1028 57 1014 57 q 1094 93 1090 57 m 260 501 l 265 438 l 96 533 l 103 563 l 308 592 l 275 546 l 713 501 l 707 461 l 260 501 z "},"O":{"ha":1393,"x_min":100,"x_max":1335,"o":"m 1121 181 q 1051 410 1078 289 q 1024 644 1024 532 q 1034 765 1024 708 q 1067 865 1044 821 l 961 858 l 928 476 l 736 476 q 747 625 743 560 q 750 740 750 690 q 728 875 750 867 q 521 838 521 868 q 522 835 521 836 q 522 833 522 835 l 664 572 l 640 554 l 354 578 l 356 597 q 467 631 468 621 l 351 876 q 346 888 349 883 q 343 899 343 893 q 352 912 343 906 q 379 918 361 918 l 1335 943 l 1319 786 q 1240 719 1264 775 q 1215 581 1215 664 q 1239 401 1215 493 q 1300 235 1263 310 q 1321 146 1321 194 q 1298 56 1321 90 q 1237 1 1275 21 q 1149 -25 1199 -18 q 1043 -32 1099 -32 q 917 -22 978 -32 q 806 3 857 -12 q 717 36 756 18 q 656 72 678 54 q 659 90 657 81 q 663 108 661 99 l 672 108 q 690 118 682 113 q 707 131 697 124 l 733 450 l 925 450 l 894 85 q 927 63 903 71 q 981 56 951 56 q 1031 62 1006 56 q 1078 79 1057 68 q 1114 108 1100 90 q 1128 149 1128 125 q 1121 181 1128 160 m 244 519 l 244 450 l 100 563 l 110 583 l 307 615 l 269 565 l 703 504 l 700 450 l 244 519 z "},"P":{"ha":1447,"x_min":88,"x_max":1454,"o":"m 1257 619 q 1167 642 1211 629 q 1084 671 1122 654 q 1014 710 1046 688 q 961 764 982 733 l 949 619 l 757 619 q 765 765 765 707 q 739 881 765 875 q 528 838 528 869 q 528 835 528 836 q 529 833 529 835 l 669 572 l 646 554 l 360 578 l 361 597 q 472 631 475 619 l 358 876 q 350 899 350 889 q 385 918 350 917 l 951 943 l 975 922 l 968 854 q 1019 889 986 871 q 1088 923 1051 907 q 1157 949 1124 939 q 1211 960 1190 960 q 1222 958 1221 960 l 1243 947 q 1190 907 1206 929 q 1174 861 1174 885 q 1204 791 1174 826 q 1278 728 1235 756 q 1368 682 1321 700 q 1449 664 1415 664 l 1454 664 q 1364 601 1413 635 q 1251 523 1315 567 q 1107 426 1188 479 q 921 304 1026 372 l 899 40 l 976 -46 l 951 -68 q 600 1 804 0 l 601 21 q 710 97 707 51 l 754 594 l 946 594 l 928 388 l 932 393 l 1257 619 m 226 522 l 247 438 l 88 549 l 92 571 l 336 624 l 243 563 l 714 501 l 710 456 l 226 522 z "},"Q":{"ha":1431,"x_min":111,"x_max":1394,"o":"m 1142 181 q 1071 410 1099 288 q 1043 644 1043 532 q 1053 765 1043 708 q 1086 865 1064 821 l 981 858 l 931 285 l 739 285 q 763 581 754 460 q 771 772 771 701 q 757 868 771 867 q 535 824 535 858 q 535 822 535 822 q 536 819 536 821 l 678 558 l 654 540 l 368 565 l 369 583 q 481 618 482 606 l 365 863 q 358 885 358 879 q 393 904 358 903 l 1354 943 l 1339 786 q 1260 719 1285 775 q 1236 581 1236 664 q 1259 403 1236 496 q 1319 235 1282 310 q 1340 144 1340 193 q 1297 27 1340 68 q 1165 -25 1254 -14 l 1232 -99 q 1251 -107 1240 -107 q 1367 -43 1289 -107 l 1394 -69 l 1224 -282 q 1124 -149 1172 -211 q 1032 -32 1076 -87 q 915 -21 971 -31 q 813 3 860 -11 q 731 36 767 18 q 675 72 696 54 q 678 90 676 81 q 682 108 681 99 l 692 108 q 709 118 701 113 q 726 131 717 124 l 736 258 l 928 258 l 914 85 q 947 63 924 71 q 1000 56 971 56 q 1051 62 1025 56 q 1099 79 1078 68 q 1133 108 1119 90 q 1147 149 1147 125 q 1142 181 1147 164 m 244 514 l 267 413 l 111 531 l 118 549 l 344 618 l 269 549 l 739 499 l 733 461 l 244 514 z "},"R":{"ha":1313,"x_min":-85,"x_max":1276,"o":"m 254 618 q 264 628 264 619 l 149 876 q 142 899 142 890 q 176 918 142 917 l 749 943 l 772 922 l 765 854 q 815 891 783 872 q 883 925 847 910 q 952 950 918 940 q 1007 960 986 960 q 1018 958 1017 960 l 1039 947 q 978 907 996 929 q 960 861 960 885 q 994 791 960 826 q 1076 728 1028 756 q 1178 682 1125 700 q 1272 664 1232 664 l 1276 664 q 926 438 1274 664 l 1094 163 l 1122 163 l 1181 281 l 1214 281 l 1189 0 l 963 0 l 729 393 l 1094 621 q 998 642 1049 631 q 901 671 947 654 q 816 710 854 688 q 757 764 778 733 l 744 607 l 553 607 q 558 691 556 653 q 560 760 560 729 q 532 878 560 874 q 318 838 318 869 q 319 835 318 836 q 319 833 319 835 l 461 572 l 438 554 l 151 578 l 153 597 l 254 618 m 399 21 q 507 97 504 51 l 550 581 l 742 581 l 694 40 l 772 -46 l 749 -68 q 397 1 601 -1 l 399 21 m 64 514 l 88 438 l -85 535 l -79 568 l 144 644 l 83 560 l 519 507 l 515 461 l 64 514 z "},"S":{"ha":1390,"x_min":103,"x_max":1422,"o":"m 415 615 q 424 625 424 617 l 310 874 q 303 888 306 882 q 300 897 300 893 q 336 915 300 915 l 1213 915 q 1207 919 1213 918 l 1108 940 l 1110 958 l 1401 983 l 1422 965 l 1231 678 q 1225 658 1225 665 q 1251 642 1225 642 l 1264 642 l 1261 619 q 1051 651 1051 619 q 1056 661 1051 654 l 1182 858 q 1022 831 1086 857 q 932 746 958 804 l 832 522 l 1244 522 q 1296 360 1278 435 q 1314 215 1314 286 l 1314 207 l 1139 249 q 1142 272 1142 263 l 1142 297 q 1138 362 1142 328 q 1128 432 1135 396 l 667 432 l 642 461 l 767 814 l 771 863 l 756 867 q 481 833 481 867 l 621 569 l 599 551 l 313 576 l 314 594 l 415 615 m 1314 179 q 1263 0 1306 78 l 971 0 l 749 244 l 731 250 l 642 3 l 601 3 l 633 351 l 886 351 l 1089 129 q 1135 222 1122 165 l 1314 179 m 231 533 l 249 450 l 103 565 l 108 589 l 329 647 l 233 560 l 628 517 l 618 479 l 231 533 z "},"T":{"ha":1357,"x_min":100,"x_max":1360,"o":"m 736 813 l 643 722 l 750 475 l 713 435 l 490 599 l 500 618 l 619 606 l 457 824 l 606 954 l 814 846 l 1014 950 l 1006 844 l 1235 954 l 1360 824 l 1163 606 l 1281 618 l 1288 599 l 1036 435 l 1007 475 l 1156 722 l 1078 813 l 999 772 l 986 622 l 794 622 l 807 774 l 736 813 m 619 346 l 433 85 q 425 64 425 69 q 453 49 425 49 l 707 49 q 747 97 746 71 l 792 597 l 983 597 l 935 40 l 1013 -46 l 989 -68 q 640 0 843 0 q 251 18 251 0 q 261 51 251 38 l 413 288 q 414 293 414 289 q 406 300 414 297 l 308 321 l 310 339 l 599 364 l 619 346 m 647 400 l 419 381 l 485 426 l 100 554 l 125 607 l 508 467 l 508 549 l 663 421 l 647 400 z "},"U":{"ha":1339,"x_min":135,"x_max":1343,"o":"m 853 350 q 824 294 840 325 q 792 234 807 264 q 765 178 776 204 q 754 138 754 153 q 766 101 754 117 q 797 76 778 86 q 839 60 815 65 q 886 56 863 56 q 941 63 915 56 q 978 85 967 71 l 1051 922 l 1076 943 l 1343 915 l 1342 894 q 1235 833 1238 844 l 1174 131 q 1203 108 1189 115 l 1213 108 l 1213 90 q 1214 72 1213 75 q 1146 35 1188 54 q 1051 1 1104 17 q 937 -24 999 -14 q 810 -33 875 -33 q 724 -29 768 -33 q 642 -10 679 -25 q 580 33 604 4 q 556 111 556 61 q 568 174 556 142 q 599 243 581 207 q 640 321 618 279 q 683 411 663 363 l 853 350 m 468 679 q 476 689 476 681 l 361 938 q 354 960 354 951 q 389 979 354 979 l 911 915 q 947 840 936 882 q 957 750 957 799 q 932 569 957 665 q 864 378 907 474 l 864 376 q 863 374 864 375 l 690 435 q 714 506 704 468 q 730 584 724 544 q 739 661 736 624 q 742 729 742 699 q 725 842 742 796 q 672 901 708 889 l 565 917 q 535 896 535 917 q 539 881 535 889 l 674 633 l 650 615 l 364 640 l 365 658 l 468 679 m 281 594 l 293 507 l 135 624 l 146 644 l 365 693 l 292 624 l 678 574 l 678 531 l 281 594 z "},"V":{"ha":1374,"x_min":119,"x_max":1338,"o":"m 475 617 q 485 626 485 618 l 369 875 q 363 889 365 883 q 360 899 360 894 q 396 917 360 917 q 407 917 401 917 q 423 916 413 917 q 450 915 433 915 q 493 915 467 915 q 950 982 839 915 l 976 960 l 906 874 q 1039 128 986 575 q 1135 536 1119 363 l 1299 547 q 1213 292 1269 429 q 1074 -8 1157 156 l 1044 -29 l 771 -1 l 767 19 q 857 79 857 68 l 857 81 q 725 817 824 546 q 664 874 721 846 q 539 838 539 867 q 540 832 539 833 l 682 571 l 658 553 l 372 576 l 374 596 l 475 617 m 1138 563 q 1139 579 1139 569 q 1139 614 1139 589 q 1047 889 1139 797 l 1304 978 q 1338 801 1338 904 q 1329 694 1338 750 q 1306 574 1321 638 l 1138 563 m 269 533 l 282 443 l 119 551 l 132 586 l 369 629 l 279 571 l 775 501 l 779 456 l 269 533 z "},"W":{"ha":1721,"x_min":136,"x_max":1769,"o":"m 685 347 q 713 413 700 379 q 736 479 725 446 l 917 446 q 904 414 910 429 q 892 382 899 399 q 859 315 879 350 q 821 246 839 279 q 790 183 803 213 q 776 136 776 154 q 788 100 776 115 q 818 75 800 85 q 858 60 836 65 q 903 56 881 56 q 951 63 928 56 q 986 81 974 69 q 984 91 985 85 q 983 114 983 97 q 993 174 983 143 q 1024 235 1003 206 q 1080 338 1054 278 q 1124 463 1106 397 q 1153 596 1143 529 q 1164 719 1164 663 q 1147 838 1164 790 q 1088 893 1129 885 l 1093 943 l 1317 915 q 1355 834 1343 881 q 1367 732 1367 788 q 1353 601 1367 671 q 1317 460 1340 532 q 1261 316 1293 388 q 1192 181 1229 244 q 1179 138 1179 157 q 1192 101 1179 117 q 1224 76 1204 86 q 1267 60 1243 65 q 1313 56 1290 56 q 1366 63 1340 56 q 1404 85 1392 71 l 1476 922 l 1503 943 l 1769 915 l 1768 894 q 1661 833 1664 844 l 1599 131 q 1628 108 1615 117 l 1639 108 l 1640 72 q 1574 35 1615 54 q 1478 1 1532 17 q 1363 -24 1425 -14 q 1238 -33 1301 -33 q 1136 -26 1186 -33 q 1039 -1 1086 -18 q 937 -24 990 -15 q 825 -32 883 -32 q 744 -28 788 -32 q 665 -11 701 -25 q 603 32 628 3 q 579 111 579 61 q 590 169 579 143 q 615 223 600 196 q 649 280 631 250 q 685 347 668 310 m 497 651 q 506 661 506 653 l 393 904 q 385 926 385 918 q 418 946 385 946 l 943 932 q 977 860 967 903 q 988 769 988 818 q 969 626 988 701 q 925 471 951 550 l 746 506 q 778 636 764 568 q 793 756 793 704 q 725 899 793 875 q 558 868 558 899 q 559 865 558 867 q 560 863 560 864 l 699 607 l 675 589 l 394 614 l 396 631 l 497 651 m 274 571 l 282 504 l 136 597 l 142 618 l 361 656 l 297 599 l 729 554 l 718 519 l 274 571 z "},"X":{"ha":1474,"x_min":144,"x_max":1513,"o":"m 485 661 q 493 674 493 663 l 376 918 q 371 939 371 929 q 425 967 371 963 l 1088 896 q 1119 878 1110 893 q 1128 853 1128 864 q 1114 819 1128 838 q 1078 773 1100 800 q 1029 709 1057 746 q 974 622 1001 672 q 961 578 961 599 q 973 542 961 557 q 1003 518 985 528 q 1046 503 1022 508 q 1093 499 1069 499 q 1147 506 1121 499 q 1185 528 1172 513 l 1201 714 l 1393 714 l 1381 574 q 1410 551 1394 556 l 1421 551 l 1421 514 q 1406 502 1417 508 q 1373 490 1394 496 q 1316 476 1351 483 q 1228 458 1281 468 q 1325 454 1285 458 q 1390 438 1365 450 q 1426 401 1415 425 q 1438 338 1438 376 q 1426 277 1438 310 q 1396 219 1415 244 q 1290 97 1328 135 q 1251 43 1251 58 q 1274 28 1251 32 q 1349 19 1297 25 l 1347 -19 l 1122 8 q 1076 30 1090 17 q 1063 60 1063 43 q 1084 112 1063 83 q 1135 171 1106 140 q 1192 230 1171 207 q 1223 268 1213 253 q 1236 294 1233 283 q 1239 317 1239 304 q 1227 353 1239 338 q 1197 378 1215 368 q 1154 394 1178 389 q 1107 399 1131 399 q 1053 391 1078 399 q 1015 369 1028 383 l 983 1 l 957 -19 l 690 8 l 692 29 q 799 90 797 78 l 819 324 q 804 337 811 331 q 790 346 797 343 l 779 346 l 779 382 q 981 431 806 404 q 853 442 897 431 q 788 471 808 453 q 765 511 768 489 q 761 557 761 533 q 804 678 761 622 q 866 751 838 721 q 915 801 894 781 q 946 833 935 821 q 957 854 957 846 q 945 864 957 858 q 894 876 933 869 q 779 892 854 883 q 576 913 704 900 q 546 892 546 913 q 550 876 546 885 l 690 615 l 667 597 l 381 621 l 382 640 l 485 661 m 1246 943 l 1513 915 l 1511 894 q 1404 833 1407 846 l 1396 740 l 1204 740 l 1219 922 l 1246 943 m 275 581 l 283 499 l 144 604 l 151 629 l 365 671 l 292 607 l 724 551 l 735 507 l 275 581 z "},"Y":{"ha":1425,"x_min":144,"x_max":1468,"o":"m 921 511 q 984 457 943 474 q 1067 440 1025 440 q 1136 464 1114 440 l 1176 922 l 1203 943 l 1468 915 l 1468 894 q 1360 833 1363 844 l 1299 140 q 1329 118 1315 122 l 1339 118 l 1339 81 q 1274 44 1315 63 q 1178 10 1232 25 q 1063 -13 1125 -4 q 936 -22 1000 -22 q 847 -18 896 -22 q 757 -1 799 -14 q 688 37 715 13 q 660 101 660 61 q 675 157 660 128 q 703 189 682 171 q 748 224 725 207 q 788 259 771 242 q 806 289 806 276 q 795 303 806 297 q 758 313 785 310 l 761 354 l 986 321 q 993 297 993 310 q 974 256 993 278 q 934 212 956 235 q 894 165 913 189 q 875 119 875 142 l 875 117 q 919 75 881 89 q 1001 61 958 61 q 1061 69 1033 61 q 1103 94 1089 76 l 1129 386 q 1056 376 1094 381 q 978 372 1017 372 q 906 374 944 372 q 831 385 867 376 q 769 408 796 393 q 729 451 742 424 l 921 511 m 468 678 q 478 688 478 679 l 363 936 q 356 958 356 947 q 401 993 356 982 l 1036 915 q 1071 893 1060 904 q 1082 867 1082 882 q 1072 828 1082 851 q 1041 772 1061 806 q 992 693 1021 739 q 926 585 964 647 q 914 535 914 564 l 722 476 q 719 497 719 490 q 718 514 718 504 q 758 640 718 581 q 855 775 817 726 q 893 851 893 824 q 829 896 893 882 l 560 929 q 531 908 531 929 q 531 902 531 906 q 533 893 532 899 l 675 632 l 651 614 l 365 639 l 367 657 l 468 678 m 278 589 l 286 517 l 144 618 l 150 640 l 361 690 l 286 618 l 689 574 l 686 533 l 278 589 z "},"Z":{"ha":1364,"x_min":133,"x_max":1367,"o":"m 560 614 q 569 624 569 615 l 453 872 q 446 894 446 886 q 481 914 446 914 l 1367 915 l 1365 897 l 1236 863 l 1232 814 l 1263 643 q 799 333 864 482 l 626 379 q 1083 632 747 513 l 1054 746 q 963 833 1017 804 q 835 863 910 863 q 624 833 624 863 q 624 831 624 832 q 625 829 625 831 l 767 568 l 743 550 l 456 575 l 458 593 l 560 614 m 792 307 q 779 235 779 269 q 865 72 779 143 l 1151 351 l 1285 351 l 1253 3 l 1213 3 l 1168 250 l 1149 244 l 883 0 l 593 0 q 550 164 550 78 q 564 261 550 207 q 608 356 578 315 l 792 307 m 321 511 l 315 464 l 133 550 l 149 578 l 385 601 l 338 557 l 724 507 l 674 467 l 321 511 z "},"`":{"ha":568,"x_min":124,"x_max":469,"o":"m 153 1140 l 469 1014 l 124 1014 l 176 1093 l 135 1108 l 153 1140 z "},"a":{"ha":913,"x_min":-1,"x_max":881,"o":"m 629 922 q 628 904 628 913 q 628 889 628 896 q 634 705 628 785 q 653 550 640 625 l 550 521 q 538 644 543 581 q 531 778 533 708 q 464 465 503 611 q 375 192 425 319 q 476 260 471 192 l 488 379 l 513 379 q 536 250 519 308 q 576 142 553 192 l 356 142 l 307 40 l 363 -46 l 332 -68 q -1 1 206 0 l 6 21 q 135 97 119 51 q 397 833 299 442 q 400 839 400 839 q 392 850 400 846 l 317 894 l 324 915 l 603 943 l 629 922 m 657 524 q 742 216 686 360 q 881 -67 797 72 l 439 50 l 457 75 q 526 67 494 69 q 581 64 557 64 q 658 92 658 64 l 658 96 q 595 272 622 174 q 553 493 568 371 l 657 524 z "},"b":{"ha":826,"x_min":119,"x_max":753,"o":"m 529 599 q 509 642 522 619 q 483 688 496 664 q 460 740 469 713 q 450 797 450 767 q 464 865 450 832 l 410 858 l 392 640 l 200 640 q 208 745 206 703 q 211 814 211 788 q 207 850 211 847 l 119 894 l 121 943 l 679 943 l 676 907 q 613 890 631 900 q 594 861 594 881 q 628 787 594 836 q 707 653 663 738 q 719 603 719 629 q 709 549 719 575 q 681 499 699 522 q 640 457 664 476 q 592 425 617 438 q 623 373 597 396 q 678 324 649 350 q 730 265 707 299 q 753 181 753 231 q 722 82 753 119 q 645 24 692 44 q 545 -2 599 4 q 446 -8 492 -8 q 267 20 340 -8 q 151 83 194 49 l 197 614 l 389 614 l 381 503 q 425 474 390 474 q 465 479 446 474 q 501 495 485 485 q 526 522 517 506 q 536 558 536 538 q 529 599 536 574 m 422 396 q 389 401 406 401 q 377 401 382 401 q 371 400 372 400 l 344 97 q 379 76 357 83 q 426 69 401 69 q 475 75 450 69 q 520 92 500 81 q 553 121 540 104 q 565 161 565 138 q 544 224 565 196 q 497 277 524 251 q 449 331 471 303 q 422 396 426 360 z "},"c":{"ha":864,"x_min":119,"x_max":867,"o":"m 346 593 q 322 565 331 579 q 314 533 314 551 q 314 525 314 531 q 315 513 314 519 l 406 349 l 256 240 l 133 456 q 119 485 119 468 q 133 514 119 500 q 393 764 393 743 l 393 765 q 376 772 386 772 q 356 769 369 772 l 169 701 l 157 726 l 424 925 l 567 796 l 346 593 m 419 326 l 508 165 l 714 328 l 756 267 l 407 -19 l 269 218 l 419 326 m 867 965 l 676 678 q 669 658 669 661 q 697 642 669 642 l 708 642 l 707 619 q 496 651 496 619 q 500 661 496 654 l 660 906 q 661 911 661 907 q 653 919 661 917 l 554 940 l 554 958 l 846 983 l 867 965 z "},"d":{"ha":842,"x_min":106,"x_max":860,"o":"m 389 124 l 672 357 l 508 507 l 642 643 l 860 463 l 854 407 l 315 -43 l 115 72 l 154 529 l 106 551 l 111 568 l 322 568 l 292 206 l 389 124 m 592 915 l 590 893 l 449 867 l 428 825 l 622 661 l 489 524 l 185 803 l 297 915 l 592 915 z "},"e":{"ha":919,"x_min":97,"x_max":897,"o":"m 464 518 l 632 432 l 282 272 l 449 204 l 872 385 l 856 200 l 415 3 l 133 126 q 105 154 113 136 q 97 189 97 172 q 113 232 97 210 q 164 271 128 254 l 374 371 l 285 413 l 464 518 m 376 593 q 365 576 365 582 q 379 561 365 567 l 438 532 l 258 425 l 161 472 q 150 492 150 478 q 164 514 150 504 q 362 688 300 622 q 424 764 424 753 l 424 765 q 406 772 417 772 q 397 772 401 772 q 385 769 392 771 l 200 701 l 186 726 l 464 925 l 597 796 l 376 593 m 897 965 l 707 678 q 700 658 700 661 q 728 642 700 642 l 739 642 l 736 619 q 526 651 526 619 q 531 661 526 654 l 689 906 q 690 911 690 907 q 683 919 690 917 l 583 940 l 585 958 l 876 983 l 897 965 z "},"f":{"ha":832,"x_min":79,"x_max":864,"o":"m 618 306 l 592 306 q 596 392 596 357 q 572 479 596 479 l 415 479 l 378 40 l 456 -46 l 431 -68 q 268 -17 356 -33 q 79 1 181 0 l 81 21 q 189 97 186 51 l 242 681 l 433 681 l 421 542 l 711 542 l 618 306 m 450 879 l 843 983 l 864 965 l 674 678 q 667 658 667 661 q 694 642 667 642 l 707 642 l 704 619 q 493 651 493 619 q 497 661 493 654 l 640 871 q 642 876 642 872 q 633 883 642 881 l 446 835 l 435 707 l 243 707 q 248 769 246 743 q 250 815 250 796 q 244 850 250 849 l 158 894 l 160 915 l 431 943 l 454 922 l 450 879 z "},"g":{"ha":888,"x_min":104,"x_max":861,"o":"m 629 463 q 726 297 678 392 q 822 75 774 201 l 554 -131 l 547 -256 l 526 -264 l 451 -121 l 668 38 q 619 160 651 107 l 403 -19 q 298 69 344 17 q 213 190 251 122 l 381 315 q 503 165 428 231 l 585 229 q 490 397 535 325 q 403 521 444 468 l 699 521 l 696 492 l 635 483 l 629 463 m 200 213 q 145 342 169 272 q 104 494 121 411 q 388 764 388 742 q 371 772 381 772 q 350 769 357 772 l 164 701 l 151 726 l 418 925 l 561 796 l 340 593 q 317 565 325 579 q 308 533 308 551 q 315 483 308 510 q 330 430 321 456 q 350 380 339 404 q 371 338 361 356 l 200 213 m 671 678 q 664 658 664 667 q 692 642 664 642 l 704 642 l 701 619 q 490 651 490 619 q 494 661 490 654 l 654 906 q 656 911 656 907 q 647 919 656 917 l 549 940 l 550 958 l 840 983 l 861 965 l 671 678 z "},"h":{"ha":911,"x_min":97,"x_max":911,"o":"m 192 65 q 207 82 204 71 l 267 775 q 236 797 250 790 l 226 797 l 226 835 q 290 869 247 850 q 390 904 333 888 q 512 932 446 921 q 643 943 578 943 q 735 934 688 943 q 822 910 783 925 q 886 876 861 894 q 911 838 911 857 q 892 808 911 821 q 851 786 874 796 q 809 767 828 776 q 790 749 790 758 q 817 724 790 736 l 815 682 l 592 714 q 578 729 578 715 q 595 747 578 739 q 633 765 613 756 q 672 783 654 774 q 689 806 689 793 q 654 840 689 825 q 576 854 619 854 q 508 846 540 854 q 463 821 476 838 l 436 529 q 510 539 471 535 q 588 543 549 543 q 678 540 632 543 q 763 522 725 536 q 824 478 800 507 q 849 397 849 449 q 840 342 849 369 q 816 290 831 315 q 784 240 801 264 q 750 194 767 215 l 599 263 q 615 288 606 274 q 632 318 624 303 q 646 348 640 333 q 651 375 651 363 q 637 417 651 399 q 600 449 622 436 q 551 468 578 461 q 500 475 525 475 q 459 469 478 475 q 429 451 440 464 l 390 -7 l 363 -28 l 97 0 l 97 21 l 192 65 m 735 174 q 690 110 706 138 q 674 64 674 82 q 756 14 674 29 l 753 -28 l 529 0 q 494 22 506 11 q 483 49 483 32 q 509 117 483 71 q 583 239 535 164 l 735 174 z "},"i":{"ha":483,"x_min":47,"x_max":479,"o":"m 399 -68 q 236 -17 324 -33 q 47 1 149 0 l 49 21 q 128 56 103 36 q 157 97 154 75 l 188 447 l 381 447 l 344 40 l 424 -46 l 399 -68 m 332 931 l 479 856 l 468 725 l 301 644 l 160 721 l 171 856 l 332 931 m 408 576 l 389 547 l 382 474 l 190 474 l 196 544 l 185 579 l 149 622 l 151 658 l 299 593 l 463 657 l 460 622 l 408 576 z "},"j":{"ha":619,"x_min":-107,"x_max":568,"o":"m 568 75 q 201 -262 415 -144 l 35 -79 l -89 -114 l -107 -97 q 8 -14 -47 -58 q 114 79 63 31 l 268 -89 q 378 11 339 -53 l 218 183 l 229 317 l 422 317 l 415 240 l 568 75 m 385 931 l 533 856 l 522 725 l 356 644 l 213 721 l 225 856 l 385 931 m 463 576 l 443 547 l 424 343 l 232 343 l 250 544 l 238 579 l 203 622 l 206 658 l 353 593 l 515 657 l 513 622 l 463 576 z "},"k":{"ha":953,"x_min":74,"x_max":938,"o":"m 582 458 q 626 379 603 417 q 679 310 650 342 l 539 163 q 469 248 501 204 q 410 338 436 292 q 391 197 401 271 q 371 40 381 124 l 449 -46 l 424 -68 q 262 -17 349 -33 q 74 1 175 0 l 75 21 q 183 97 181 51 q 238 495 219 335 q 256 747 256 656 q 249 833 256 803 l 249 836 q 238 850 249 843 l 151 894 l 153 915 l 424 943 l 447 922 q 456 843 456 903 q 446 660 456 776 q 414 376 436 544 l 724 797 l 726 826 l 608 899 l 610 915 l 938 915 l 936 892 l 582 458 m 724 0 q 557 142 632 67 l 696 290 q 800 199 747 233 l 849 281 l 881 281 l 857 0 l 724 0 z "},"l":{"ha":861,"x_min":153,"x_max":769,"o":"m 736 435 q 744 406 742 419 q 718 404 733 406 q 688 398 703 403 q 663 384 674 393 q 653 361 653 375 q 659 294 653 336 q 679 201 665 251 q 715 99 693 151 q 769 0 738 46 l 153 0 l 158 35 q 184 45 175 39 q 203 57 193 51 l 258 696 l 450 696 l 394 67 q 526 42 428 42 l 547 42 q 568 43 561 42 q 525 104 543 67 q 495 185 507 142 q 477 273 483 228 q 471 356 471 318 q 476 415 471 393 l 736 435 m 271 836 q 260 850 271 843 l 174 894 l 175 915 l 557 931 l 557 889 q 558 864 557 871 l 464 858 l 451 722 l 260 722 l 271 836 z "},"m":{"ha":1460,"x_min":97,"x_max":1403,"o":"m 1400 943 q 1402 880 1401 911 q 1403 817 1403 849 q 1394 594 1403 706 q 1373 370 1386 482 q 1344 148 1360 258 q 1311 -71 1328 38 q 1163 -10 1239 -36 q 999 32 1086 15 l 1011 64 q 1043 59 1029 61 q 1071 57 1057 57 q 1138 93 1133 57 q 1183 473 1167 321 q 1199 708 1199 625 q 1198 738 1199 725 q 1196 763 1197 751 q 685 -117 1074 633 q 744 414 725 210 q 764 710 764 618 q 763 741 764 729 q 761 763 763 753 q 396 54 635 636 l 394 40 l 472 -46 l 447 -68 q 285 -17 372 -33 q 97 1 199 0 l 97 21 q 178 56 153 36 q 207 97 204 75 l 254 642 l 446 642 l 413 247 q 578 633 489 458 q 772 946 668 807 l 921 964 l 943 943 q 945 896 944 919 q 946 847 946 872 q 896 404 946 671 q 1051 710 975 575 q 1207 946 1128 844 l 1378 964 l 1400 943 m 272 857 q 263 871 272 865 l 176 915 l 179 936 l 450 964 l 472 943 l 449 668 l 257 668 l 272 854 l 272 857 z "},"n":{"ha":1021,"x_min":103,"x_max":928,"o":"m 922 922 q 926 859 925 890 q 928 796 928 828 q 919 582 928 688 q 894 371 910 476 l 708 403 q 750 790 750 588 l 750 808 q 425 329 613 739 l 401 40 l 479 -46 l 454 -68 q 292 -17 379 -33 q 103 1 204 0 l 104 21 q 184 56 158 36 q 213 97 210 75 q 256 590 240 408 q 271 828 271 771 q 268 850 271 847 l 182 894 l 183 915 l 454 943 l 478 922 l 442 511 q 726 925 571 796 l 899 943 l 922 922 m 889 343 q 844 135 871 238 q 782 -71 818 33 q 467 32 657 1 l 478 64 q 510 59 496 61 q 538 57 525 57 q 604 93 600 57 q 703 376 668 229 l 889 343 z "},"o":{"ha":864,"x_min":126,"x_max":806,"o":"m 593 181 q 522 410 550 288 q 494 644 494 532 q 505 765 494 708 q 538 865 515 821 l 432 858 l 378 228 l 185 228 q 219 627 207 479 q 231 825 231 775 q 228 850 231 847 l 142 894 l 143 943 l 806 943 l 792 786 q 710 719 735 775 q 686 581 686 663 q 710 401 686 493 q 772 235 733 310 q 793 146 793 194 q 770 56 793 90 q 708 1 747 21 q 619 -25 669 -18 q 514 -32 569 -32 q 388 -22 449 -32 q 277 3 328 -12 q 188 36 226 18 q 126 72 149 54 q 130 90 128 81 q 133 108 132 99 q 159 118 150 113 q 178 131 168 124 l 185 203 l 376 203 l 365 85 q 399 63 375 71 q 451 56 424 56 q 503 62 476 56 q 551 79 529 68 q 585 108 572 90 q 599 149 599 125 q 593 181 599 164 z "},"p":{"ha":911,"x_min":65,"x_max":919,"o":"m 722 619 q 632 642 676 629 q 549 671 588 654 q 478 710 510 688 q 425 764 446 733 l 411 597 l 219 597 q 231 731 226 676 q 235 815 235 785 q 229 850 235 849 l 143 894 l 144 915 l 417 943 l 440 922 l 433 854 q 483 889 450 871 q 551 923 515 907 q 622 949 588 939 q 676 960 657 960 q 688 958 681 960 q 707 947 696 956 q 654 907 669 929 q 639 861 639 885 q 669 791 639 826 q 743 728 700 756 q 833 682 786 700 q 914 664 881 664 l 919 664 q 828 601 878 635 q 716 524 779 567 q 572 426 653 481 q 385 304 490 372 l 363 40 l 442 -46 l 417 -68 q 65 1 269 0 l 67 21 q 147 56 121 36 q 175 97 172 75 l 217 571 l 408 571 l 393 388 l 397 393 l 722 619 z "},"q":{"ha":874,"x_min":118,"x_max":838,"o":"m 583 181 q 513 410 540 289 q 486 644 486 532 q 497 765 486 708 q 529 865 507 821 l 424 858 l 415 768 l 224 768 q 228 818 228 799 q 219 850 228 846 l 133 894 l 135 943 l 796 943 l 782 786 q 703 719 728 775 q 679 581 679 664 q 702 403 679 496 q 763 235 725 310 q 783 144 783 193 q 740 27 783 68 q 608 -25 697 -14 l 675 -99 q 694 -107 683 -107 q 810 -43 729 -107 l 838 -69 l 665 -282 q 567 -149 615 -211 q 474 -32 518 -87 q 357 -20 413 -31 q 255 5 301 -10 q 173 38 208 19 q 118 72 138 56 l 124 108 l 135 108 q 152 115 143 108 q 168 131 161 121 l 222 742 l 414 742 l 357 85 q 390 63 365 71 q 443 56 414 56 q 494 62 468 56 q 541 79 519 68 q 576 108 563 90 q 590 149 590 125 q 583 181 590 160 z "},"r":{"ha":972,"x_min":57,"x_max":938,"o":"m 425 854 q 476 891 444 872 q 544 925 508 910 q 613 950 579 940 q 667 960 646 960 q 679 958 678 960 l 700 947 q 619 860 619 908 q 653 790 619 825 q 737 727 688 756 q 840 681 786 699 q 932 664 893 664 l 938 664 l 588 438 l 754 163 l 783 163 l 840 281 l 875 281 l 850 0 l 622 0 l 389 393 l 754 621 q 658 642 708 631 q 562 671 608 654 q 477 710 515 688 q 418 764 439 733 l 403 578 l 210 578 q 223 724 218 665 q 228 814 228 782 q 222 850 228 849 l 136 894 l 138 915 l 408 943 l 432 922 l 425 854 m 408 -68 q 246 -17 333 -33 q 57 1 158 0 l 58 21 q 138 56 113 36 q 167 97 164 75 l 207 553 l 400 553 l 356 40 l 433 -46 l 408 -68 z "},"s":{"ha":863,"x_min":75,"x_max":894,"o":"m 717 522 q 788 213 788 351 q 735 0 788 99 l 444 0 l 221 244 l 204 250 l 115 3 l 75 3 l 106 351 l 358 351 l 561 129 q 615 296 615 181 q 611 358 615 324 q 600 432 607 392 l 140 432 l 114 461 l 188 671 l 371 671 l 304 522 l 717 522 m 894 965 l 704 678 q 697 658 697 667 q 725 642 697 642 l 736 642 l 733 619 q 524 651 524 619 q 528 661 524 654 l 654 858 q 404 746 476 838 l 382 697 l 197 697 l 239 814 l 243 863 l 119 897 l 119 915 l 686 915 q 681 919 686 918 l 581 940 l 582 958 l 874 983 l 894 965 z "},"t":{"ha":1033,"x_min":135,"x_max":1038,"o":"m 1038 824 l 839 606 l 958 618 l 965 599 l 714 435 l 685 475 l 833 722 l 756 813 l 676 772 l 635 294 l 443 294 l 485 774 l 414 813 l 321 722 l 428 475 l 390 435 l 168 599 l 178 618 l 296 606 l 135 824 l 283 954 l 490 846 l 692 950 l 683 844 l 913 954 l 1038 824 m 665 -68 q 503 -17 590 -33 q 315 1 417 0 l 315 21 q 424 97 424 51 l 440 269 l 632 269 l 613 40 l 690 -46 l 665 -68 z "},"u":{"ha":826,"x_min":76,"x_max":863,"o":"m 768 850 q 754 833 757 844 l 693 131 q 722 108 708 115 l 732 108 q 732 81 732 88 q 733 72 732 75 q 665 35 707 54 q 571 1 624 17 q 456 -24 518 -14 q 329 -33 394 -33 q 243 -29 288 -33 q 161 -10 199 -25 q 100 33 124 4 q 76 111 76 61 q 118 235 76 176 q 176 342 150 279 q 226 471 203 404 l 396 403 q 356 319 378 358 q 316 245 335 279 q 285 183 297 211 q 272 138 272 156 q 285 101 272 117 q 317 76 297 86 q 361 60 338 65 q 406 56 385 56 q 460 63 435 56 q 497 85 486 71 l 571 922 l 597 943 l 863 915 l 861 894 l 768 850 m 232 497 q 263 628 253 564 q 272 747 272 692 q 256 855 272 814 q 203 903 239 896 l 207 943 l 431 915 q 465 842 454 883 q 475 751 475 801 q 456 598 475 681 q 406 428 438 515 l 232 497 z "},"v":{"ha":896,"x_min":126,"x_max":860,"o":"m 561 128 q 660 560 647 382 l 833 596 q 745 320 804 468 q 596 -8 686 172 l 567 -29 l 293 -1 l 289 19 q 379 79 379 68 l 379 81 q 247 817 346 546 q 131 893 240 863 l 126 914 q 472 982 335 914 l 499 960 l 428 874 q 561 128 508 575 m 660 588 q 637 773 660 701 q 569 889 614 844 l 826 978 q 851 894 842 939 q 860 796 860 849 q 839 624 860 717 l 660 588 z "},"w":{"ha":1208,"x_min":68,"x_max":1257,"o":"m 1088 131 q 1104 117 1096 122 q 1126 108 1113 111 q 1126 81 1126 88 q 1128 72 1126 75 q 1061 35 1103 54 q 966 1 1019 17 q 851 -24 913 -14 q 726 -33 790 -33 q 625 -26 675 -33 q 528 -1 575 -18 q 425 -24 478 -15 q 314 -32 372 -32 q 231 -28 274 -32 q 151 -10 188 -25 q 92 32 115 4 q 68 110 68 60 q 110 235 68 176 q 172 346 142 281 q 226 483 203 411 q 264 625 250 554 q 278 753 278 696 q 263 849 278 813 q 211 893 247 886 l 217 943 l 442 915 q 483 772 483 858 q 466 633 483 707 q 420 481 449 558 q 355 328 392 404 q 278 181 318 251 q 264 135 264 154 q 275 100 264 115 q 304 75 286 85 q 344 60 322 65 q 390 56 367 56 q 440 63 417 56 q 474 81 463 69 q 471 97 471 92 l 471 114 q 481 174 471 143 q 511 235 490 206 q 568 338 542 278 q 613 463 594 397 q 642 596 632 529 q 653 719 653 663 q 635 838 653 790 q 576 893 618 885 l 581 943 l 806 915 q 844 834 832 881 q 856 732 856 788 q 842 601 856 671 q 804 459 828 531 q 749 316 781 388 q 681 181 717 244 q 670 160 674 169 q 667 140 667 151 q 678 103 667 119 q 709 77 690 88 q 752 61 728 67 q 800 56 776 56 q 855 63 829 56 q 892 85 881 71 l 906 261 l 1099 261 l 1088 131 m 1163 850 q 1149 833 1151 844 l 1100 288 l 908 288 l 965 922 l 990 943 l 1257 915 l 1256 894 l 1163 850 z "},"x":{"ha":842,"x_min":58,"x_max":881,"o":"m 154 74 q 167 90 164 79 l 188 324 q 172 337 179 331 q 158 346 165 343 l 147 346 l 147 382 q 349 429 171 401 q 224 438 267 429 q 167 463 182 446 q 138 506 146 485 q 131 554 131 528 q 140 617 131 583 q 172 678 150 650 q 278 806 239 764 q 318 871 318 849 q 295 892 318 885 q 222 903 272 899 l 224 943 l 447 915 q 489 867 489 893 q 476 828 489 850 q 443 776 464 806 q 396 709 422 747 q 342 622 369 671 q 329 579 329 599 q 341 544 329 560 q 372 519 353 529 q 414 503 390 508 q 461 499 438 499 q 515 506 489 499 q 553 528 540 513 l 567 681 l 758 681 l 749 574 q 765 559 756 564 q 789 551 774 554 l 789 514 q 775 504 778 508 q 758 494 772 500 q 708 479 743 488 q 596 458 672 471 q 776 429 753 458 q 806 343 806 392 q 796 280 806 313 q 764 219 786 247 q 658 97 697 135 q 619 43 619 58 q 642 28 619 32 q 717 19 665 25 l 715 -19 l 490 8 q 444 30 458 17 q 431 60 431 43 q 458 119 431 86 q 519 186 486 151 q 579 255 551 221 q 607 317 607 289 q 595 353 607 338 q 565 378 583 368 q 522 394 546 389 q 475 399 499 399 q 421 391 446 399 q 383 369 396 383 l 351 1 l 325 -19 l 58 8 l 60 29 l 154 74 m 614 943 l 881 915 l 879 894 q 772 833 775 846 l 760 707 l 568 707 l 588 922 l 614 943 z "},"y":{"ha":836,"x_min":69,"x_max":879,"o":"m 783 850 q 771 833 772 843 l 708 140 q 739 118 725 122 l 750 118 l 750 81 q 683 44 725 63 q 588 12 642 26 q 473 -12 535 -3 q 346 -22 411 -22 q 257 -18 306 -22 q 167 -1 208 -14 q 97 37 125 13 q 69 101 69 61 q 85 157 69 128 q 113 189 92 171 q 158 224 135 207 q 198 259 181 242 q 215 289 215 276 q 205 303 215 297 q 168 313 194 310 l 171 354 l 396 321 q 403 297 403 310 q 384 256 403 278 q 344 212 365 235 q 303 165 322 189 q 285 119 285 142 l 285 117 q 329 75 290 89 q 411 61 368 61 q 471 69 443 61 q 513 94 499 76 l 539 386 q 465 376 504 381 q 388 372 426 372 q 296 376 342 372 q 213 395 250 381 q 151 438 175 410 q 128 514 128 465 q 142 588 128 554 q 182 660 156 622 l 194 678 l 354 614 q 333 577 342 597 q 324 540 324 557 q 338 498 324 517 q 375 467 353 479 q 424 447 397 454 q 475 440 450 440 q 516 446 497 440 q 546 464 535 451 l 586 922 l 613 943 l 879 915 l 878 894 l 783 850 m 210 700 q 276 791 251 754 q 301 850 301 828 q 282 881 301 869 q 219 901 263 893 l 222 943 l 446 915 q 482 897 472 913 q 492 865 492 882 q 459 785 492 839 q 368 636 426 732 l 210 700 z "},"z":{"ha":903,"x_min":88,"x_max":906,"o":"m 906 915 l 904 897 l 775 863 l 772 814 l 801 643 q 575 538 668 589 q 425 438 482 488 q 342 338 368 388 q 317 236 317 288 l 317 229 l 89 183 q 121 306 93 247 q 210 418 149 364 q 372 525 271 472 q 622 632 472 578 q 576 748 604 703 q 516 819 549 793 q 447 853 483 844 q 374 863 410 863 l 324 863 l 254 651 l 204 651 l 204 915 l 906 915 m 321 204 q 404 72 335 133 l 690 351 l 824 351 l 793 3 l 751 3 l 707 250 l 688 244 l 424 0 l 132 0 q 88 157 89 79 l 321 204 z "},"":{"ha":568,"x_min":71,"x_max":483,"o":"m 361 -79 q 457 -150 361 -119 l 456 -172 q 92 -239 250 -172 l 71 -217 l 164 -131 l 190 165 l 382 165 l 361 -75 l 361 -79 m 175 710 l 336 786 l 483 710 l 471 576 l 315 500 l 164 579 l 175 710 m 465 478 l 422 435 l 403 400 l 385 192 l 193 192 l 211 403 l 197 432 l 154 478 l 157 511 l 310 447 l 468 513 l 465 478 z "},"":{"ha":578,"x_min":93,"x_max":489,"o":"m 343 1099 l 489 1099 l 478 971 l 332 971 l 343 1099 m 246 1099 l 233 971 l 93 971 l 104 1099 l 246 1099 z "},"":{"ha":993,"x_min":110,"x_max":660,"o":"m 385 211 l 275 117 l 110 417 l 151 469 l 319 460 l 292 406 l 385 211 m 621 251 l 511 157 l 357 458 l 529 447 l 621 251 m 585 772 l 660 703 l 540 471 l 367 482 l 585 772 m 349 732 l 424 663 l 332 485 l 171 496 l 349 732 z "},"":{"ha":568,"x_min":108,"x_max":454,"o":"m 454 1014 l 108 1014 l 425 1140 l 444 1108 l 403 1093 l 454 1014 z "},"":{"ha":431,"x_min":99,"x_max":326,"o":"m 326 -142 l 322 -175 l 164 -281 l 99 -207 l 167 -153 l 221 -210 l 263 -182 l 165 -68 l 165 47 l 201 47 l 201 -10 l 326 -142 z "},"":{"ha":1017,"x_min":115,"x_max":681,"o":"m 193 125 l 115 193 l 250 451 l 229 493 l 435 469 l 193 125 m 421 688 l 531 782 l 681 467 l 508 483 l 421 688 m 457 167 l 382 236 l 497 461 l 664 442 l 457 167 m 267 740 l 418 494 l 217 519 l 157 646 l 267 740 z "},"":{"ha":890,"x_min":90,"x_max":793,"o":"m 92 -229 l 221 -194 l 225 -144 l 194 25 q 374 133 308 79 q 474 236 440 186 l 603 188 q 510 113 564 149 q 374 36 457 76 q 413 -87 386 -42 q 474 -156 440 -132 q 547 -187 508 -181 q 622 -194 585 -194 l 672 -194 l 742 17 l 793 17 l 793 -247 l 90 -247 l 92 -229 m 489 258 q 510 339 510 306 q 503 378 510 357 q 618 435 554 411 q 733 467 682 460 q 724 408 729 439 q 706 343 718 376 q 675 275 694 310 q 622 207 656 240 l 489 258 m 694 668 q 725 557 717 613 q 719 558 722 557 q 714 558 717 558 q 646 544 686 558 q 564 508 606 529 l 501 476 q 473 578 490 532 q 425 668 456 624 l 694 668 z "},"":{"ha":1315,"x_min":42,"x_max":1283,"o":"m 446 228 q 439 207 439 214 q 467 192 439 192 l 585 192 q 698 476 644 318 q 799 833 751 635 q 801 839 801 839 q 794 850 801 846 l 719 894 l 726 915 l 1006 943 l 1032 922 q 1031 899 1031 913 q 1031 854 1031 886 q 1037 706 1031 779 q 1054 563 1043 633 l 950 533 q 940 651 944 592 q 932 778 935 711 q 776 192 878 443 q 879 260 874 192 l 889 379 l 915 379 q 938 250 922 308 q 979 142 954 192 l 757 142 q 734 91 746 117 q 710 40 722 65 l 765 -46 l 733 -68 q 401 1 607 0 l 407 21 q 472 42 447 31 q 510 65 496 53 q 533 90 525 76 q 549 119 540 103 l 561 143 q 264 179 264 143 q 267 185 264 179 l 426 431 q 428 436 428 432 q 419 444 428 442 l 319 465 l 321 483 l 624 508 l 633 489 l 446 228 m 1058 536 q 1283 -67 1113 213 l 840 50 l 860 75 q 928 67 897 69 q 983 64 960 64 q 1060 92 1060 64 l 1060 96 q 997 276 1024 175 q 953 507 971 378 l 1058 536 m 47 490 l 42 522 l 236 624 l 218 563 l 689 626 l 661 543 l 235 504 l 279 447 l 47 490 m 1071 1014 l 725 1014 l 776 1093 l 735 1108 l 754 1140 l 1071 1014 z "},"":{"ha":1315,"x_min":42,"x_max":1283,"o":"m 446 228 q 439 207 439 214 q 467 192 439 192 l 585 192 q 698 476 644 318 q 799 833 751 635 q 801 839 801 839 q 794 850 801 846 l 719 894 l 726 915 l 1006 943 l 1032 922 q 1031 903 1031 913 q 1031 886 1031 894 l 1031 854 q 1037 706 1031 779 q 1054 563 1043 633 l 950 533 q 940 651 944 592 q 932 778 935 711 q 776 192 878 443 q 879 260 874 192 l 889 379 l 915 379 q 938 250 922 308 q 979 142 954 192 l 757 142 q 734 91 746 117 q 710 40 722 65 l 765 -46 l 733 -68 q 401 1 607 0 l 407 21 q 472 42 447 31 q 510 65 496 53 q 533 90 525 76 q 549 119 540 103 l 561 143 q 264 179 264 143 q 267 185 264 179 l 426 431 q 428 436 428 432 q 419 444 428 442 l 319 465 l 321 483 l 613 508 l 633 489 l 446 228 m 1058 536 q 1283 -67 1113 213 l 840 50 l 860 75 q 928 67 897 69 q 983 64 960 64 q 1060 92 1060 64 l 1060 96 q 997 276 1024 175 q 953 507 971 378 l 1058 536 m 47 490 l 42 522 l 236 624 l 218 563 l 689 626 l 661 543 l 235 504 l 279 447 l 47 490 m 738 1014 l 1056 1140 l 1074 1108 l 1032 1093 l 1083 1014 l 738 1014 z "},"":{"ha":1315,"x_min":42,"x_max":1283,"o":"m 446 228 q 439 207 439 214 q 467 192 439 192 l 585 192 q 698 476 644 318 q 799 833 751 635 q 801 839 801 839 q 794 850 801 846 l 719 894 l 726 915 l 1006 943 l 1032 922 q 1031 899 1031 913 q 1031 854 1031 886 q 1037 706 1031 779 q 1054 563 1043 633 l 950 533 q 940 651 944 592 q 932 778 935 711 q 776 192 878 443 q 879 260 874 192 l 889 379 l 915 379 q 938 250 922 308 q 979 142 954 192 l 757 142 q 734 91 746 117 q 710 40 722 65 l 765 -46 l 733 -68 q 401 1 607 0 l 407 21 q 472 42 447 31 q 510 65 496 53 q 533 90 525 76 q 549 119 540 103 l 561 143 q 264 179 264 143 q 267 185 264 179 l 426 431 q 428 436 428 432 q 419 444 428 442 l 319 465 l 321 483 l 613 508 l 633 489 l 446 228 m 1058 536 q 1283 -67 1113 213 l 840 50 l 860 75 q 928 67 897 69 q 983 64 960 64 q 1060 92 1060 64 l 1060 96 q 997 276 1024 175 q 953 507 971 378 l 1058 536 m 47 490 l 42 522 l 236 624 l 218 563 l 689 626 l 661 543 l 235 504 l 279 447 l 47 490 m 693 986 l 888 1104 l 1081 986 l 693 986 z "},"":{"ha":1315,"x_min":42,"x_max":1283,"o":"m 446 228 q 439 207 439 214 q 467 192 439 192 l 585 192 q 698 476 644 318 q 799 833 751 635 q 801 839 801 839 q 794 850 801 846 l 719 894 l 726 915 l 1006 943 l 1032 922 q 1031 903 1031 913 q 1031 886 1031 894 l 1031 854 q 1037 706 1031 779 q 1054 563 1043 633 l 950 533 q 940 651 944 592 q 932 778 935 711 q 776 192 878 443 q 879 260 874 192 l 889 379 l 915 379 q 938 250 922 308 q 979 142 954 192 l 757 142 q 734 91 746 117 q 710 40 722 65 l 765 -46 l 733 -68 q 401 1 607 0 l 407 21 q 472 42 447 31 q 510 65 496 53 q 533 90 525 76 q 549 119 540 103 l 561 143 q 264 179 264 143 q 267 185 264 179 l 426 431 q 428 436 428 432 q 419 444 428 442 l 319 465 l 321 483 l 613 508 l 633 489 l 446 228 m 1058 536 q 1283 -67 1113 213 l 840 50 l 860 75 q 928 67 897 69 q 983 64 960 64 q 1060 92 1060 64 l 1060 96 q 997 276 1024 175 q 953 507 971 378 l 1058 536 m 47 490 l 42 522 l 236 624 l 218 563 l 689 626 l 661 543 l 235 504 l 279 447 l 47 490 m 1085 1129 l 954 976 l 853 1043 l 708 969 l 847 1106 l 950 1051 l 1085 1129 z "},"":{"ha":1315,"x_min":42,"x_max":1283,"o":"m 446 228 q 439 207 439 214 q 467 192 439 192 l 585 192 q 698 476 644 318 q 799 833 751 635 q 801 839 801 839 q 794 850 801 846 l 719 894 l 726 915 l 1006 943 l 1032 922 q 1031 899 1031 913 q 1031 854 1031 886 q 1037 706 1031 779 q 1054 563 1043 633 l 950 533 q 940 651 944 592 q 932 778 935 711 q 776 192 878 443 q 879 260 874 192 l 889 379 l 915 379 q 938 250 922 308 q 979 142 954 192 l 757 142 q 734 91 746 117 q 710 40 722 65 l 765 -46 l 733 -68 q 401 1 607 0 l 407 21 q 472 42 447 31 q 510 65 496 53 q 533 90 525 76 q 549 119 540 103 l 561 143 q 264 179 264 143 q 267 185 264 179 l 426 431 q 428 436 428 432 q 419 444 428 442 l 319 465 l 321 483 l 603 508 l 633 489 l 446 228 m 1058 536 q 1283 -67 1113 213 l 840 50 l 860 75 q 928 67 897 69 q 983 64 960 64 q 1060 92 1060 64 l 1060 96 q 997 276 1024 175 q 953 507 971 378 l 1058 536 m 47 490 l 42 522 l 236 624 l 218 563 l 689 626 l 661 543 l 235 504 l 279 447 l 47 490 m 1096 1099 l 1083 971 l 938 971 l 950 1099 l 1096 1099 m 840 971 l 699 971 l 710 1099 l 851 1099 l 840 971 z "},"":{"ha":1315,"x_min":42,"x_max":1283,"o":"m 749 1060 q 760 1115 749 1089 q 791 1162 771 1142 q 838 1194 811 1182 q 893 1206 864 1206 q 949 1194 922 1206 q 995 1162 975 1182 q 1026 1115 1015 1142 q 1038 1060 1038 1089 q 1019 991 1038 1021 q 971 939 1001 961 l 1006 943 l 1032 922 q 1031 899 1031 913 q 1031 854 1031 886 q 1037 706 1031 779 q 1054 563 1043 633 l 950 533 q 940 651 944 592 q 932 778 935 711 q 776 192 878 443 q 879 260 874 192 l 889 379 l 915 379 q 938 250 922 308 q 979 142 954 192 l 757 142 q 734 91 746 117 q 710 40 722 65 l 765 -46 l 733 -68 q 401 1 607 0 l 407 21 q 472 42 447 31 q 510 65 496 53 q 533 90 525 76 q 549 119 540 103 l 561 143 q 264 179 264 143 q 267 185 264 179 l 426 431 q 428 436 428 432 q 419 444 428 442 l 319 465 l 321 483 l 613 508 l 633 489 l 446 228 q 439 207 439 214 q 467 192 439 192 l 585 192 q 698 476 644 318 q 799 833 751 635 q 801 839 801 839 q 794 850 801 846 l 719 894 l 726 915 l 839 925 q 773 979 797 944 q 749 1060 749 1014 m 1058 536 q 1283 -67 1113 213 l 840 50 l 860 75 q 928 67 897 69 q 983 64 960 64 q 1060 92 1060 64 l 1060 96 q 997 276 1024 175 q 953 507 971 378 l 1058 536 m 47 490 l 42 522 l 236 624 l 218 563 l 689 626 l 661 543 l 235 504 l 279 447 l 47 490 m 815 1061 q 838 1006 815 1028 q 893 983 860 983 q 950 1006 928 983 q 972 1061 972 1028 q 950 1119 972 1096 q 893 1142 928 1142 q 838 1119 860 1142 q 815 1061 815 1096 z "},"":{"ha":1924,"x_min":42,"x_max":1838,"o":"m 633 489 l 446 228 q 439 207 439 214 q 467 192 439 192 l 585 192 q 698 476 644 318 q 799 833 751 635 q 801 839 801 839 q 794 850 801 846 l 719 894 l 726 915 l 1006 943 l 1032 922 q 1031 903 1031 913 q 1031 886 1031 894 l 1031 854 q 1037 706 1031 779 q 1054 563 1043 633 l 950 533 q 940 651 944 592 q 932 778 935 711 q 776 192 878 443 q 879 260 874 192 l 889 379 l 915 379 q 938 250 922 308 q 979 142 954 192 l 757 142 q 734 91 746 117 q 710 40 722 65 l 765 -46 l 733 -68 q 401 1 607 0 l 407 21 q 472 42 447 31 q 510 65 496 53 q 533 90 525 76 q 549 119 540 103 l 561 143 q 264 179 264 143 q 267 185 264 179 l 426 431 q 428 436 428 432 q 419 444 428 442 l 319 465 l 321 483 l 613 508 l 633 489 m 1404 518 l 1572 432 l 1222 272 l 1389 204 l 1813 385 l 1796 200 l 1356 3 q 1147 96 1226 50 q 1040 189 1068 142 q 989 317 1010 238 q 953 507 968 396 l 1058 536 q 1086 385 1072 449 q 1114 275 1100 321 l 1314 371 l 1225 413 l 1404 518 m 1317 593 q 1306 576 1306 582 q 1319 561 1306 567 l 1378 532 l 1199 425 l 1101 472 q 1090 492 1090 483 q 1103 514 1090 503 q 1363 764 1363 743 l 1363 765 q 1346 772 1356 772 q 1337 772 1342 772 q 1325 769 1332 771 l 1140 701 l 1126 726 l 1404 925 l 1538 796 l 1317 593 m 1838 965 l 1646 678 q 1640 658 1640 665 q 1668 642 1640 642 l 1679 642 l 1676 619 q 1467 651 1467 619 q 1471 661 1467 654 l 1629 906 q 1631 911 1631 907 q 1624 919 1631 917 l 1524 940 l 1525 958 l 1817 983 l 1838 965 m 279 447 l 47 490 l 42 522 l 236 624 l 218 563 l 689 626 l 661 543 l 235 504 l 279 447 z "},"":{"ha":1339,"x_min":33,"x_max":1342,"o":"m 624 890 l 436 629 q 431 613 431 619 q 450 599 431 599 l 463 599 l 899 925 l 1042 796 l 821 593 q 797 565 806 579 q 789 533 789 551 q 790 525 789 531 q 792 513 790 519 l 865 376 l 717 265 l 608 456 q 599 470 603 464 q 594 485 594 476 q 608 514 594 500 q 868 764 868 743 l 868 765 q 843 774 861 774 q 831 773 838 774 q 818 772 825 772 l 276 421 q 239 417 253 417 q 186 458 186 417 q 194 494 186 471 l 417 832 q 418 838 418 833 q 410 844 418 842 l 311 865 l 313 883 l 603 908 l 624 890 m 1032 -175 l 874 -281 l 808 -207 l 876 -153 l 929 -210 l 971 -182 l 875 -68 l 875 -7 l 729 243 l 879 354 l 983 165 l 1189 328 l 1231 267 l 910 3 l 910 -10 l 1035 -142 l 1032 -175 m 199 210 l 269 163 l 51 131 l 33 154 l 142 333 l 165 256 l 513 476 l 794 -18 l 726 -43 l 489 397 l 199 210 m 1151 678 q 1144 658 1144 661 q 1172 642 1144 642 l 1185 642 l 1182 619 q 971 651 971 619 q 975 661 971 654 l 1135 906 q 1136 911 1136 907 q 1128 919 1136 917 l 1029 940 l 1031 958 l 1321 983 l 1342 965 l 1151 678 z "},"":{"ha":1247,"x_min":74,"x_max":1225,"o":"m 521 908 l 542 890 l 354 629 q 349 613 349 619 q 368 599 349 599 l 381 599 l 800 914 l 925 796 q 704 565 704 596 q 707 561 704 564 l 775 525 l 596 421 l 489 472 q 478 492 478 483 q 490 514 478 503 q 750 764 750 743 q 733 772 743 772 q 724 772 729 772 q 713 769 719 771 l 194 421 q 157 417 171 417 q 104 458 104 417 q 105 474 104 465 q 113 494 106 483 l 335 832 q 336 838 336 833 q 328 844 336 842 l 228 865 l 229 883 l 521 908 m 803 511 l 960 432 l 610 272 l 776 204 l 1200 385 l 1183 200 l 743 3 l 461 126 q 425 189 425 156 q 490 271 425 236 l 701 371 l 622 407 l 803 511 m 1225 965 l 1033 678 q 1028 658 1028 665 q 1056 642 1028 642 l 1067 642 l 1064 619 q 854 651 854 619 q 858 661 854 654 l 1017 906 q 1018 911 1018 907 q 1011 919 1018 917 l 911 940 l 913 958 l 1204 983 l 1225 965 m 346 133 l 86 88 l 74 118 l 210 317 l 233 250 l 476 410 l 561 379 l 281 203 l 346 133 m 936 1014 l 590 1014 l 642 1093 l 600 1108 l 619 1140 l 936 1014 m 207 363 l 213 403 l 664 708 l 656 690 l 207 363 z "},"":{"ha":1247,"x_min":74,"x_max":1225,"o":"m 521 908 l 542 890 l 354 629 q 349 613 349 619 q 368 599 349 599 l 381 599 l 800 914 l 925 796 q 704 565 704 596 q 707 561 704 564 l 775 525 l 596 421 l 489 472 q 478 492 478 483 q 490 514 478 503 q 750 764 750 743 l 750 765 q 733 772 743 772 q 724 772 729 772 q 713 769 719 771 l 194 421 q 157 417 171 417 q 104 458 104 417 q 105 474 104 465 q 113 494 106 483 l 335 832 q 336 838 336 833 q 328 844 336 842 l 228 865 l 229 883 l 521 908 m 803 511 l 960 432 l 610 272 l 776 204 l 1200 385 l 1183 200 l 743 3 l 461 126 q 425 189 425 156 q 490 271 425 236 l 701 371 l 622 407 l 803 511 m 1225 965 l 1033 678 q 1028 658 1028 665 q 1056 642 1028 642 l 1067 642 l 1064 619 q 854 651 854 619 q 858 661 854 654 l 1017 906 q 1018 911 1018 907 q 1011 919 1018 917 l 911 940 l 913 958 l 1204 983 l 1225 965 m 346 133 l 86 88 l 74 118 l 210 317 l 233 250 l 476 410 l 561 379 l 281 203 l 346 133 m 608 1014 l 925 1140 l 944 1108 l 903 1093 l 954 1014 l 608 1014 m 207 363 l 213 403 l 664 708 l 656 690 l 207 363 z "},"":{"ha":1247,"x_min":74,"x_max":1225,"o":"m 521 908 l 542 890 l 354 629 q 349 613 349 619 q 368 599 349 599 l 381 599 l 800 914 l 925 796 q 704 565 704 596 q 707 561 704 564 l 775 525 l 596 421 l 489 472 q 478 492 478 483 q 490 514 478 503 q 750 764 750 743 l 750 765 q 733 772 743 772 q 724 772 729 772 q 713 769 719 771 l 194 421 q 157 417 171 417 q 104 458 104 417 q 113 494 104 471 l 335 832 q 336 838 336 833 q 328 844 336 842 l 228 865 l 229 883 l 521 908 m 803 511 l 960 432 l 610 272 l 776 204 l 1200 385 l 1183 200 l 743 3 l 461 126 q 425 189 425 156 q 490 271 425 236 l 701 371 l 622 407 l 803 511 m 1225 965 l 1033 678 q 1028 658 1028 665 q 1056 642 1028 642 l 1067 642 l 1064 619 q 854 651 854 619 q 858 661 854 654 l 1017 906 q 1018 911 1018 907 q 1011 919 1018 917 l 911 940 l 913 958 l 1204 983 l 1225 965 m 346 133 l 86 88 l 74 118 l 210 317 l 233 250 l 476 410 l 561 379 l 281 203 l 346 133 m 607 986 l 801 1104 l 993 986 l 607 986 m 207 363 l 213 403 l 664 708 l 656 690 l 207 363 z "},"":{"ha":1247,"x_min":74,"x_max":1225,"o":"m 521 908 l 542 890 l 354 629 q 349 613 349 619 q 368 599 349 599 l 381 599 l 800 914 l 925 796 q 704 565 704 596 q 707 561 704 564 l 775 525 l 596 421 l 489 472 q 478 492 478 483 q 490 514 478 503 q 750 764 750 743 l 750 765 q 733 772 743 772 q 724 772 729 772 q 713 769 719 771 l 194 421 q 157 417 171 417 q 104 458 104 417 q 113 494 104 471 l 335 832 q 336 838 336 833 q 328 844 336 842 l 228 865 l 229 883 l 521 908 m 803 511 l 960 432 l 610 272 l 776 204 l 1200 385 l 1183 200 l 743 3 l 461 126 q 425 189 425 156 q 490 271 425 236 l 701 371 l 622 407 l 803 511 m 1225 965 l 1033 678 q 1028 658 1028 665 q 1056 642 1028 642 l 1067 642 l 1064 619 q 854 651 854 619 q 858 661 854 654 l 1017 906 q 1018 911 1018 907 q 1011 919 1018 917 l 911 940 l 913 958 l 1204 983 l 1225 965 m 346 133 l 86 88 l 74 118 l 210 317 l 233 250 l 476 410 l 561 379 l 281 203 l 346 133 m 1006 1099 l 993 971 l 847 971 l 860 1099 l 1006 1099 m 750 971 l 608 971 l 619 1099 l 761 1099 l 750 971 m 207 363 l 213 403 l 664 708 l 656 690 l 207 363 z "},"":{"ha":697,"x_min":-36,"x_max":657,"o":"m 492 581 l 449 86 l 499 86 l 528 100 l 599 236 l 615 225 l 560 0 l 131 0 l 115 226 l 135 238 l 182 101 l 207 88 l 242 88 l 301 581 l 492 581 m 325 829 l 274 829 l 246 815 l 174 679 l 157 690 l 211 914 l 642 914 l 657 689 l 638 678 l 592 814 l 564 828 l 513 828 l 494 607 l 304 607 l 325 829 m 179 324 l -36 418 l -33 446 l 197 533 l 154 457 l 260 457 l 256 404 l 149 404 l 179 324 m 581 1014 l 235 1014 l 288 1093 l 246 1108 l 264 1140 l 581 1014 z "},"":{"ha":697,"x_min":-36,"x_max":657,"o":"m 492 581 l 449 86 l 499 86 l 528 100 l 599 236 l 615 225 l 560 0 l 131 0 l 115 226 l 135 238 l 182 101 l 207 88 l 258 88 l 301 581 l 492 581 m 325 829 l 274 829 l 246 815 l 174 679 l 157 690 l 211 914 l 642 914 l 657 689 l 638 678 l 592 814 l 564 828 l 513 828 l 494 607 l 304 607 l 325 829 m 179 324 l -36 418 l -33 446 l 197 533 l 154 457 l 260 457 l 256 404 l 149 404 l 179 324 m 239 1014 l 556 1140 l 575 1108 l 533 1093 l 585 1014 l 239 1014 z "},"":{"ha":697,"x_min":-36,"x_max":657,"o":"m 492 581 l 449 86 l 499 86 l 528 100 l 599 236 l 615 225 l 560 0 l 131 0 l 115 226 l 135 238 l 182 101 l 207 88 l 258 88 l 301 581 l 492 581 m 325 829 l 274 829 l 246 815 l 174 679 l 157 690 l 211 914 l 642 914 l 657 689 l 638 678 l 592 814 l 564 828 l 513 828 l 494 607 l 304 607 l 325 829 m 179 324 l -36 418 l -33 446 l 197 533 l 154 457 l 260 457 l 256 404 l 149 404 l 179 324 m 231 986 l 425 1104 l 618 986 l 231 986 z "},"":{"ha":697,"x_min":-36,"x_max":657,"o":"m 492 581 l 449 86 l 499 86 l 528 100 l 599 236 l 615 225 l 560 0 l 131 0 l 115 226 l 135 238 l 182 101 l 207 88 l 258 88 l 301 581 l 492 581 m 325 829 l 274 829 l 246 815 l 174 679 l 157 690 l 211 914 l 642 914 l 657 689 l 638 678 l 592 814 l 564 828 l 513 828 l 494 607 l 304 607 l 325 829 m 179 324 l -36 418 l -33 446 l 197 533 l 154 457 l 260 457 l 256 404 l 149 404 l 179 324 m 628 1099 l 617 971 l 469 971 l 482 1099 l 628 1099 m 372 971 l 231 971 l 243 1099 l 383 1099 l 372 971 z "},"":{"ha":1433,"x_min":103,"x_max":1450,"o":"m 971 193 l 1042 238 l 981 188 l 971 193 m 592 603 q 585 582 585 589 q 613 567 585 567 l 914 567 l 882 206 l 981 124 l 1264 357 l 1099 506 l 1243 638 l 1450 463 l 1446 407 l 907 -43 l 707 72 l 746 518 q 411 554 411 518 q 413 556 413 554 q 414 560 413 557 l 572 806 q 574 811 574 807 q 565 818 574 815 l 467 839 l 468 858 l 758 882 l 779 864 l 592 603 m 1182 893 l 1040 864 l 1019 825 l 1224 653 l 1081 522 l 776 803 l 889 915 l 1183 915 l 1182 893 m 261 413 l 283 319 l 103 426 l 107 450 l 332 554 l 276 471 l 692 471 l 658 82 l 601 79 l 632 413 l 261 413 z "},"":{"ha":1490,"x_min":96,"x_max":1417,"o":"m 467 604 q 474 614 474 607 l 358 863 q 351 885 351 879 q 386 904 351 904 l 944 943 l 968 922 l 931 511 q 1215 925 1060 796 l 1388 943 l 1411 922 q 1415 847 1414 883 q 1417 772 1417 811 q 1404 531 1417 651 l 1222 531 q 1235 665 1231 597 q 1239 808 1239 733 q 915 329 1100 739 l 890 40 l 968 -46 l 944 -68 q 596 0 817 -8 l 599 42 q 674 58 647 44 q 703 97 700 71 l 768 833 q 733 878 767 868 q 529 825 529 863 q 530 822 529 824 q 531 819 531 821 l 671 558 l 647 540 l 361 565 l 363 583 l 467 604 m 1094 93 q 1169 291 1139 190 q 1217 504 1200 392 l 1401 504 q 1272 -71 1369 214 q 956 32 1147 1 l 968 64 q 1000 59 986 61 q 1028 57 1014 57 q 1094 93 1090 57 m 265 438 l 96 533 l 103 563 l 308 592 l 275 546 l 713 501 l 707 461 l 260 501 l 265 438 m 1049 1129 l 918 976 l 815 1043 l 671 969 l 811 1106 l 913 1051 l 1049 1129 z "},"":{"ha":1393,"x_min":100,"x_max":1335,"o":"m 1121 181 q 1051 410 1078 289 q 1024 644 1024 532 q 1034 765 1024 708 q 1067 865 1044 821 l 961 858 l 928 476 l 736 476 q 747 625 743 560 q 750 740 750 690 q 728 875 750 867 q 521 838 521 868 q 522 835 521 836 q 522 833 522 835 l 664 572 l 640 554 l 354 578 l 356 597 q 467 631 468 621 l 351 876 q 343 899 343 889 q 352 911 343 906 q 379 918 361 917 l 1335 943 l 1319 786 q 1240 719 1264 775 q 1215 581 1215 664 q 1239 401 1215 493 q 1300 235 1263 310 q 1321 146 1321 194 q 1298 56 1321 90 q 1237 1 1275 21 q 1149 -25 1199 -18 q 1043 -32 1099 -32 q 917 -22 978 -32 q 806 3 857 -12 q 717 36 756 18 q 656 72 678 54 q 659 90 657 81 q 663 108 661 99 l 672 108 q 690 118 682 113 q 707 131 697 124 l 733 450 l 925 450 l 894 85 q 927 63 903 71 q 981 56 951 56 q 1031 62 1006 56 q 1078 79 1057 68 q 1114 108 1100 90 q 1128 149 1128 125 q 1121 181 1128 160 m 244 450 l 100 563 l 110 583 l 307 615 l 269 565 l 703 504 l 700 450 l 244 519 l 244 450 m 1197 1014 l 851 1014 l 903 1093 l 861 1108 l 881 1140 l 1197 1014 z "},"":{"ha":1393,"x_min":100,"x_max":1335,"o":"m 1121 181 q 1051 410 1078 289 q 1024 644 1024 532 q 1034 765 1024 708 q 1067 865 1044 821 l 961 858 l 928 476 l 736 476 q 747 625 743 560 q 750 740 750 690 q 728 875 750 867 q 521 838 521 868 q 522 835 521 836 q 522 833 522 835 l 664 572 l 640 554 l 354 578 l 356 597 q 467 631 468 621 l 351 876 q 343 899 343 889 q 352 911 343 906 q 379 918 361 917 l 1335 943 l 1319 786 q 1240 719 1264 775 q 1215 581 1215 664 q 1239 401 1215 493 q 1300 235 1263 310 q 1321 146 1321 194 q 1298 56 1321 90 q 1237 1 1275 21 q 1149 -25 1199 -18 q 1043 -32 1099 -32 q 917 -22 978 -32 q 806 3 857 -12 q 717 36 756 18 q 656 72 678 54 q 659 90 657 81 q 663 108 661 99 l 672 108 q 690 118 682 113 q 707 131 697 124 l 733 450 l 925 450 l 894 85 q 927 63 903 71 q 981 56 951 56 q 1031 62 1006 56 q 1078 79 1057 68 q 1114 108 1100 90 q 1128 149 1128 125 q 1121 181 1128 160 m 244 450 l 100 563 l 110 583 l 307 615 l 269 565 l 703 504 l 700 450 l 244 519 l 244 450 m 847 1014 l 1164 1140 l 1183 1108 l 1142 1093 l 1193 1014 l 847 1014 z "},"":{"ha":1393,"x_min":100,"x_max":1335,"o":"m 1121 181 q 1051 410 1078 289 q 1024 644 1024 532 q 1034 765 1024 708 q 1067 865 1044 821 l 961 858 l 928 476 l 736 476 q 747 625 743 560 q 750 740 750 690 q 728 875 750 867 q 521 838 521 868 q 522 835 521 836 q 522 833 522 835 l 664 572 l 640 554 l 354 578 l 356 597 q 467 631 468 621 l 351 876 q 343 899 343 889 q 379 918 343 915 l 1335 943 l 1319 786 q 1240 719 1264 775 q 1215 581 1215 664 q 1239 401 1215 493 q 1300 235 1263 310 q 1321 146 1321 194 q 1298 56 1321 90 q 1237 1 1275 21 q 1149 -25 1199 -18 q 1043 -32 1099 -32 q 917 -22 978 -32 q 806 3 857 -12 q 717 36 756 18 q 656 72 678 54 q 659 90 657 81 q 663 108 661 99 l 672 108 q 690 118 682 113 q 707 131 697 124 l 733 450 l 925 450 l 894 85 q 927 63 903 71 q 981 56 951 56 q 1031 62 1006 56 q 1078 79 1057 68 q 1114 108 1100 90 q 1128 149 1128 125 q 1121 181 1128 160 m 244 450 l 100 563 l 110 583 l 307 615 l 269 565 l 703 504 l 700 450 l 244 519 l 244 450 m 808 986 l 1003 1104 l 1194 986 l 808 986 z "},"":{"ha":1393,"x_min":100,"x_max":1335,"o":"m 1121 181 q 1051 410 1078 289 q 1024 644 1024 532 q 1034 765 1024 708 q 1067 865 1044 821 l 961 858 l 928 476 l 736 476 q 747 625 743 560 q 750 740 750 690 q 728 875 750 867 q 521 838 521 868 q 522 835 521 836 q 522 833 522 835 l 664 572 l 640 554 l 354 578 l 356 597 q 467 631 468 621 l 351 876 q 343 899 343 889 q 379 918 343 915 l 1335 943 l 1319 786 q 1240 719 1264 775 q 1215 581 1215 664 q 1239 401 1215 493 q 1300 235 1263 310 q 1321 146 1321 194 q 1298 56 1321 90 q 1237 1 1275 21 q 1149 -25 1199 -18 q 1043 -32 1099 -32 q 917 -22 978 -32 q 806 3 857 -12 q 717 36 756 18 q 656 72 678 54 q 659 90 657 81 q 663 108 661 99 l 672 108 q 690 118 682 113 q 707 131 697 124 l 733 450 l 925 450 l 894 85 q 927 63 903 71 q 981 56 951 56 q 1031 62 1006 56 q 1078 79 1057 68 q 1114 108 1100 90 q 1128 149 1128 125 q 1121 181 1128 160 m 244 450 l 100 563 l 110 583 l 307 615 l 269 565 l 703 504 l 700 450 l 244 519 l 244 450 m 1189 1129 l 1058 976 l 957 1043 l 813 969 l 951 1106 l 1054 1051 l 1189 1129 z "},"":{"ha":1393,"x_min":100,"x_max":1335,"o":"m 1121 181 q 1051 410 1078 289 q 1024 644 1024 532 q 1034 765 1024 708 q 1067 865 1044 821 l 961 858 l 928 476 l 736 476 q 747 625 743 560 q 750 740 750 690 q 728 875 750 867 q 521 838 521 868 q 522 835 521 836 q 522 833 522 835 l 664 572 l 640 554 l 354 578 l 356 597 q 467 631 468 621 l 351 876 q 343 899 343 889 q 379 918 343 915 l 1335 943 l 1319 786 q 1240 719 1264 775 q 1215 581 1215 664 q 1239 401 1215 493 q 1300 235 1263 310 q 1321 146 1321 194 q 1298 56 1321 90 q 1237 1 1275 21 q 1149 -25 1199 -18 q 1043 -32 1099 -32 q 917 -22 978 -32 q 806 3 857 -12 q 717 36 756 18 q 656 72 678 54 q 659 90 657 81 q 663 108 661 99 l 672 108 q 690 118 682 113 q 707 131 697 124 l 733 450 l 925 450 l 894 85 q 927 63 903 71 q 981 56 951 56 q 1031 62 1006 56 q 1078 79 1057 68 q 1114 108 1100 90 q 1128 149 1128 125 q 1121 181 1128 160 m 244 450 l 100 563 l 110 583 l 307 615 l 269 565 l 703 504 l 700 450 l 244 519 l 244 450 m 1208 1099 l 1197 971 l 1051 971 l 1063 1099 l 1208 1099 m 953 971 l 813 971 l 824 1099 l 965 1099 l 953 971 z "},"":{"ha":1393,"x_min":100,"x_max":1335,"o":"m 1033 500 q 1025 573 1026 533 q 1024 644 1024 613 q 1067 865 1024 775 l 961 858 l 928 476 l 736 476 q 747 625 743 560 q 750 740 750 690 q 728 875 750 867 q 521 838 521 868 q 522 835 521 836 q 522 833 522 835 l 664 572 l 640 554 l 354 578 l 356 597 q 467 631 468 621 l 351 876 q 343 899 343 889 q 379 918 343 915 l 1335 943 l 1319 786 q 1240 719 1264 775 q 1215 581 1215 664 q 1239 401 1215 493 q 1300 235 1263 310 q 1321 146 1321 194 q 1298 56 1321 90 q 1237 1 1275 21 q 1149 -25 1199 -18 q 1043 -32 1099 -32 q 917 -22 978 -32 q 806 3 857 -12 q 717 36 756 18 q 656 72 678 54 q 659 90 657 81 q 663 108 661 99 q 688 118 679 113 q 707 131 697 124 l 733 450 l 925 450 l 922 408 l 1033 500 m 1121 181 q 1090 282 1103 229 q 1056 383 1076 335 l 908 264 l 894 85 q 927 63 903 71 q 981 56 951 56 q 1031 62 1006 56 q 1078 79 1057 68 q 1114 108 1100 90 q 1128 149 1128 125 q 1121 181 1128 160 m 244 519 l 244 450 l 100 563 l 110 583 l 307 615 l 269 565 l 703 504 l 700 450 l 244 519 z "},"":{"ha":1339,"x_min":135,"x_max":1343,"o":"m 853 350 q 824 294 840 325 q 792 234 807 264 q 765 178 776 204 q 754 138 754 153 q 766 101 754 117 q 797 76 778 86 q 839 60 815 65 q 886 56 863 56 q 941 63 915 56 q 978 85 967 71 l 1051 922 l 1076 943 l 1343 915 l 1342 894 q 1235 833 1238 844 l 1174 131 q 1203 108 1189 115 l 1213 108 l 1213 90 q 1214 72 1213 75 q 1146 35 1188 54 q 1051 1 1104 17 q 937 -24 999 -14 q 810 -33 875 -33 q 724 -29 768 -33 q 642 -10 679 -25 q 580 33 604 4 q 556 111 556 61 q 568 174 556 142 q 599 243 581 207 q 640 321 618 279 q 683 411 663 363 l 853 350 m 468 679 q 476 689 476 681 l 361 938 q 354 960 354 951 q 389 979 354 979 l 911 915 q 947 840 936 882 q 957 750 957 799 q 932 569 957 665 q 864 378 907 474 l 864 376 q 863 374 864 375 l 690 435 q 714 506 704 468 q 730 584 724 544 q 739 661 736 624 q 742 729 742 699 q 725 842 742 796 q 672 901 708 889 l 565 917 q 535 896 535 917 q 539 881 535 889 l 674 633 l 650 615 l 364 640 l 365 658 l 468 679 m 293 507 l 135 624 l 146 644 l 365 693 l 292 624 l 678 574 l 678 531 l 281 594 l 293 507 m 1118 1014 l 772 1014 l 824 1093 l 782 1108 l 800 1140 l 1118 1014 z "},"":{"ha":1339,"x_min":135,"x_max":1343,"o":"m 853 350 q 824 294 840 325 q 792 234 807 264 q 765 178 776 204 q 754 138 754 153 q 766 101 754 117 q 797 76 778 86 q 839 60 815 65 q 886 56 863 56 q 941 63 915 56 q 978 85 967 71 l 1051 922 l 1076 943 l 1343 915 l 1342 894 q 1235 833 1238 844 l 1174 131 q 1203 108 1189 115 l 1213 108 l 1213 90 q 1214 72 1213 75 q 1146 35 1188 54 q 1051 1 1104 17 q 937 -24 999 -14 q 810 -33 875 -33 q 724 -29 768 -33 q 642 -10 679 -25 q 580 33 604 4 q 556 111 556 61 q 568 174 556 142 q 599 243 581 207 q 640 321 618 279 q 683 411 663 363 l 853 350 m 468 679 q 476 689 476 681 l 361 938 q 354 960 354 951 q 389 979 354 979 l 911 915 q 947 840 936 882 q 957 750 957 799 q 932 569 957 665 q 864 378 907 474 l 864 376 q 863 374 864 375 l 690 435 q 714 506 704 468 q 730 584 724 544 q 739 661 736 624 q 742 729 742 699 q 725 842 742 796 q 672 901 708 889 l 565 917 q 535 896 535 917 q 539 881 535 889 l 674 633 l 650 615 l 364 640 l 365 658 l 468 679 m 293 507 l 135 624 l 146 644 l 365 693 l 292 624 l 678 574 l 678 531 l 281 594 l 293 507 m 813 1014 l 1129 1140 l 1147 1108 l 1106 1093 l 1158 1014 l 813 1014 z "},"":{"ha":1339,"x_min":135,"x_max":1343,"o":"m 853 350 q 824 294 840 325 q 792 234 807 264 q 765 178 776 204 q 754 138 754 153 q 766 101 754 117 q 797 76 778 86 q 839 60 815 65 q 886 56 863 56 q 941 63 915 56 q 978 85 967 71 l 1051 922 l 1076 943 l 1343 915 l 1342 894 q 1235 833 1238 844 l 1174 131 q 1203 108 1189 115 l 1213 108 l 1213 90 q 1214 72 1213 75 q 1146 35 1188 54 q 1051 1 1104 17 q 937 -24 999 -14 q 810 -33 875 -33 q 724 -29 768 -33 q 642 -10 679 -25 q 580 33 604 4 q 556 111 556 61 q 568 174 556 142 q 599 243 581 207 q 640 321 618 279 q 683 411 663 363 l 853 350 m 468 679 q 476 689 476 681 l 361 938 q 354 960 354 951 q 389 979 354 979 l 911 915 q 947 840 936 882 q 957 750 957 799 q 932 569 957 665 q 864 378 907 474 l 864 376 q 863 374 864 375 l 690 435 q 714 506 704 468 q 730 584 724 544 q 739 661 736 624 q 742 729 742 699 q 725 842 742 796 q 672 901 708 889 l 565 917 q 535 896 535 917 q 539 881 535 889 l 674 633 l 650 615 l 364 640 l 365 658 l 468 679 m 293 507 l 135 624 l 146 644 l 365 693 l 292 624 l 678 574 l 678 531 l 281 594 l 293 507 m 758 986 l 953 1104 l 1144 986 l 758 986 z "},"":{"ha":1339,"x_min":135,"x_max":1343,"o":"m 853 350 q 824 294 840 325 q 792 234 807 264 q 765 178 776 204 q 754 138 754 153 q 766 101 754 117 q 797 76 778 86 q 839 60 815 65 q 886 56 863 56 q 941 63 915 56 q 978 85 967 71 l 1051 922 l 1076 943 l 1343 915 l 1342 894 q 1235 833 1238 844 l 1174 131 q 1203 108 1189 115 l 1213 108 l 1213 90 q 1214 72 1213 75 q 1146 35 1188 54 q 1051 1 1104 17 q 937 -24 999 -14 q 810 -33 875 -33 q 724 -29 768 -33 q 642 -10 679 -25 q 580 33 604 4 q 556 111 556 61 q 568 174 556 142 q 599 243 581 207 q 640 321 618 279 q 683 411 663 363 l 853 350 m 468 679 q 476 689 476 681 l 361 938 q 354 960 354 951 q 389 979 354 979 l 911 915 q 947 840 936 882 q 957 750 957 799 q 932 569 957 665 q 864 378 907 474 l 864 376 q 863 374 864 375 l 690 435 q 714 506 704 468 q 730 584 724 544 q 739 661 736 624 q 742 729 742 699 q 725 842 742 796 q 672 901 708 889 l 565 917 q 535 896 535 917 q 539 881 535 889 l 674 633 l 650 615 l 364 640 l 365 658 l 468 679 m 293 507 l 135 624 l 146 644 l 365 693 l 292 624 l 678 574 l 678 531 l 281 594 l 293 507 m 1186 1099 l 1175 971 l 1029 971 l 1040 1099 l 1186 1099 m 931 971 l 790 971 l 801 1099 l 943 1099 l 931 971 z "},"":{"ha":1425,"x_min":144,"x_max":1468,"o":"m 921 511 q 984 457 943 474 q 1067 440 1025 440 q 1136 464 1114 440 l 1176 922 l 1203 943 l 1468 915 l 1468 894 q 1360 833 1363 844 l 1299 140 q 1315 126 1307 131 q 1339 118 1324 121 l 1339 81 q 1274 44 1315 63 q 1178 10 1232 25 q 1063 -13 1125 -4 q 936 -22 1000 -22 q 847 -18 896 -22 q 757 -1 799 -14 q 688 37 715 13 q 660 101 660 61 q 675 157 660 128 q 703 189 682 171 q 748 224 725 207 q 788 259 771 242 q 806 289 806 276 q 795 303 806 297 q 758 313 785 310 l 761 354 l 986 321 q 993 297 993 310 q 974 256 993 278 q 934 212 956 235 q 894 165 913 189 q 875 119 875 142 l 875 117 q 919 75 881 89 q 1001 61 958 61 q 1061 69 1033 61 q 1103 94 1089 76 l 1129 386 q 1056 376 1094 381 q 978 372 1017 372 q 906 374 944 372 q 831 385 867 376 q 769 408 796 393 q 729 451 742 424 l 921 511 m 468 678 q 478 688 478 679 l 363 936 q 356 958 356 947 q 401 993 356 982 l 1036 915 q 1071 893 1060 904 q 1082 867 1082 882 q 1072 828 1082 851 q 1041 772 1061 806 q 992 693 1021 739 q 926 585 964 647 q 914 540 914 564 l 914 535 l 722 476 q 719 497 719 490 q 718 514 718 504 q 758 640 718 581 q 855 775 817 726 q 893 851 893 824 q 829 896 893 882 l 560 929 q 531 908 531 929 q 531 902 531 906 q 533 893 532 899 l 675 632 l 651 614 l 365 639 l 367 657 l 468 678 m 286 517 l 144 618 l 150 640 l 361 690 l 286 618 l 689 574 l 686 533 l 278 589 l 286 517 m 693 676 l 582 899 l 853 850 l 693 676 m 942 1014 l 1258 1140 l 1276 1108 l 1235 1093 l 1288 1014 l 942 1014 z "},"":{"ha":1579,"x_min":75,"x_max":1614,"o":"m 894 965 l 860 915 l 1404 915 q 1400 919 1404 917 l 1300 940 l 1301 958 l 1593 983 l 1614 965 l 1424 678 q 1417 658 1417 661 q 1444 642 1417 642 l 1456 642 l 1453 619 q 1243 651 1243 619 q 1247 661 1243 654 l 1374 858 q 1124 746 1196 838 l 1101 697 l 917 697 l 958 814 l 963 863 l 847 894 l 704 678 q 697 658 697 661 q 725 642 697 642 l 736 642 l 733 619 q 524 651 524 619 q 528 661 524 654 l 654 858 q 404 746 476 838 l 382 697 l 197 697 l 239 814 l 243 863 l 119 897 l 119 915 l 686 915 q 681 919 686 918 l 581 940 l 582 958 l 874 983 l 894 965 m 717 522 q 788 213 788 351 q 735 0 788 97 l 444 0 l 221 244 l 204 250 l 115 3 l 75 3 l 106 351 l 358 351 l 561 129 q 615 296 615 181 q 611 358 615 325 q 600 432 607 392 l 140 432 l 114 461 l 188 671 l 371 671 l 304 522 l 717 522 m 1436 522 q 1507 213 1507 351 q 1454 0 1507 97 l 1164 0 l 940 244 l 924 250 l 835 3 l 794 3 l 825 351 l 1078 351 l 1281 129 q 1335 296 1335 181 q 1331 358 1335 325 q 1319 432 1326 392 l 860 432 l 833 461 l 907 671 l 1090 671 l 1024 522 l 1436 522 z "},"":{"ha":913,"x_min":-1,"x_max":881,"o":"m 629 922 q 628 904 628 913 q 628 889 628 896 l 628 858 q 653 550 628 697 l 550 521 q 538 644 543 581 q 531 778 533 708 q 464 465 503 611 q 375 192 425 319 q 476 260 471 192 l 488 379 l 513 379 q 536 250 519 308 q 576 142 553 192 l 356 142 l 307 40 l 363 -46 l 332 -68 q -1 1 206 0 l 6 21 q 135 97 119 51 q 397 833 299 442 q 400 839 400 839 q 392 850 400 846 l 317 894 l 324 915 l 603 943 l 629 922 m 657 524 q 742 216 686 360 q 881 -67 797 72 l 439 50 l 457 75 q 526 67 494 69 q 581 64 557 64 q 658 92 658 64 l 658 96 q 595 272 622 174 q 553 493 568 371 l 657 524 m 656 1014 l 310 1014 l 361 1093 l 319 1108 l 338 1140 l 656 1014 z "},"":{"ha":913,"x_min":-1,"x_max":881,"o":"m 629 922 q 628 901 628 913 q 628 858 628 889 q 653 550 628 697 l 550 521 q 538 644 543 581 q 531 778 533 708 q 464 465 503 611 q 375 192 425 319 q 476 260 471 192 l 488 379 l 513 379 q 536 250 519 308 q 576 142 553 192 l 356 142 l 307 40 l 363 -46 l 332 -68 q -1 1 206 0 l 6 21 q 135 97 119 51 q 397 833 299 442 q 400 839 400 839 q 392 850 400 846 l 317 894 l 324 915 l 603 943 l 629 922 m 657 524 q 742 216 686 360 q 881 -67 797 72 l 439 50 l 457 75 q 526 67 494 69 q 581 64 557 64 q 658 92 658 64 l 658 96 q 595 272 622 174 q 553 493 568 371 l 657 524 m 308 1014 l 625 1140 l 643 1108 l 601 1093 l 654 1014 l 308 1014 z "},"":{"ha":913,"x_min":-1,"x_max":881,"o":"m 629 922 q 628 904 628 913 q 628 889 628 896 l 628 858 q 653 550 628 697 l 550 521 q 538 644 543 581 q 531 778 533 708 q 464 465 503 611 q 375 192 425 319 q 476 260 471 192 l 488 379 l 513 379 q 536 250 519 308 q 576 142 553 192 l 356 142 l 307 40 l 363 -46 l 332 -68 q -1 1 206 0 l 6 21 q 135 97 119 51 q 397 833 299 442 q 400 839 400 839 q 392 850 400 846 l 317 894 l 324 915 l 603 936 l 629 922 m 657 524 q 742 216 686 360 q 881 -67 797 72 l 439 50 l 457 75 q 526 67 494 69 q 581 64 557 64 q 658 92 658 64 l 658 96 q 595 272 622 174 q 553 493 568 371 l 657 524 m 290 986 l 485 1104 l 676 986 l 290 986 z "},"":{"ha":913,"x_min":-1,"x_max":881,"o":"m 629 922 q 628 904 628 913 q 628 889 628 896 l 628 858 q 653 550 628 697 l 550 521 q 538 644 543 581 q 531 778 533 708 q 464 465 503 611 q 375 192 425 319 q 476 260 471 192 l 488 379 l 513 379 q 536 250 519 308 q 576 142 553 192 l 356 142 l 307 40 l 363 -46 l 332 -68 q -1 1 206 0 l 6 21 q 135 97 119 51 q 397 833 299 442 q 400 839 400 839 q 392 850 400 846 l 317 894 l 324 915 l 603 943 l 629 922 m 657 524 q 742 216 686 360 q 881 -67 797 72 l 439 50 l 457 75 q 526 67 494 69 q 581 64 557 64 q 658 92 658 64 l 658 96 q 595 272 622 174 q 553 493 568 371 l 657 524 m 682 1129 l 551 976 l 449 1043 l 304 969 l 444 1106 l 546 1051 l 682 1129 z "},"":{"ha":913,"x_min":-1,"x_max":881,"o":"m 629 922 q 628 904 628 913 q 628 889 628 896 l 628 858 q 653 550 628 697 l 550 521 q 538 644 543 581 q 531 778 533 708 q 464 465 503 611 q 375 192 425 319 q 476 260 471 192 l 488 379 l 513 379 q 536 250 519 308 q 576 142 553 192 l 356 142 l 307 40 l 363 -46 l 332 -68 q -1 1 206 0 l 6 21 q 135 97 119 51 q 397 833 299 442 q 400 839 400 839 q 392 850 400 846 l 317 894 l 324 915 l 603 943 l 629 922 m 657 524 q 742 216 686 360 q 881 -67 797 72 l 439 50 l 457 75 q 526 67 494 69 q 581 64 557 64 q 658 92 658 64 l 658 96 q 595 272 622 174 q 553 493 568 371 l 657 524 m 721 1099 l 708 971 l 563 971 l 575 1099 l 721 1099 m 465 971 l 324 971 l 336 1099 l 476 1099 l 465 971 z "},"":{"ha":913,"x_min":-1,"x_max":881,"o":"m 344 1060 q 356 1115 344 1089 q 388 1162 368 1142 q 433 1194 407 1182 q 489 1206 460 1206 q 545 1194 518 1206 q 592 1162 572 1182 q 623 1115 611 1142 q 635 1060 635 1089 q 617 991 635 1021 q 568 939 599 961 l 603 943 l 629 922 q 628 904 628 913 q 628 889 628 896 l 628 858 q 653 550 628 697 l 550 521 q 538 644 543 581 q 531 778 533 708 q 464 465 503 611 q 375 192 425 319 q 476 260 471 192 l 488 379 l 513 379 q 536 250 519 308 q 576 142 553 192 l 356 142 l 307 40 l 363 -46 l 332 -68 q -1 1 206 0 l 6 21 q 135 97 119 51 q 397 833 299 442 q 400 839 400 839 q 392 850 400 846 l 317 894 l 324 915 l 435 925 q 369 979 394 944 q 344 1060 344 1014 m 657 524 q 742 216 686 360 q 881 -67 797 72 l 439 50 l 457 75 q 526 67 494 69 q 581 64 557 64 q 658 92 658 64 l 658 96 q 595 272 622 174 q 553 493 568 371 l 657 524 m 411 1061 q 433 1006 411 1028 q 489 983 456 983 q 547 1006 524 983 q 569 1061 569 1028 q 547 1119 569 1096 q 489 1142 524 1142 q 433 1119 456 1142 q 411 1061 411 1096 z "},"":{"ha":1500,"x_min":-1,"x_max":1425,"o":"m 629 922 q 628 904 628 913 q 628 889 628 896 l 628 858 q 653 550 628 697 l 550 521 q 538 644 543 581 q 531 778 533 708 q 464 465 503 611 q 375 192 425 319 q 476 260 471 192 l 488 379 l 513 379 q 536 250 519 308 q 576 142 553 192 l 356 142 l 307 40 l 363 -46 l 332 -68 q -1 1 206 0 l 6 21 q 135 97 119 51 q 397 833 299 442 q 400 839 400 839 q 392 850 400 846 l 317 894 l 324 915 l 603 943 l 629 922 m 657 524 q 690 392 669 449 q 736 292 710 336 l 903 371 l 814 413 l 992 518 l 1161 432 l 811 272 l 978 204 l 1401 385 l 1383 200 l 944 3 q 760 70 829 32 q 649 165 690 108 q 588 301 608 222 q 553 493 568 381 l 657 524 m 904 593 q 894 576 894 583 q 907 561 894 567 l 967 532 l 788 425 l 689 472 q 679 492 679 482 q 692 514 679 503 q 951 764 951 743 l 951 765 q 935 772 944 772 q 914 769 928 772 l 729 701 l 715 726 l 982 925 l 1125 796 l 904 593 m 1425 965 l 1235 678 q 1229 658 1229 665 q 1256 642 1229 642 l 1268 642 l 1265 619 q 1056 651 1056 619 q 1058 661 1056 653 l 1218 906 q 1219 911 1219 907 q 1211 919 1219 917 l 1113 940 l 1114 958 l 1404 983 l 1425 965 z "},"":{"ha":864,"x_min":119,"x_max":867,"o":"m 676 678 q 669 658 669 661 q 697 642 669 642 l 708 642 l 707 619 q 496 651 496 619 q 500 661 496 654 l 575 775 l 346 593 q 322 564 332 582 q 311 529 311 546 q 315 513 311 521 l 406 349 l 256 240 l 133 456 q 119 485 119 468 q 133 514 119 500 q 393 764 393 743 l 393 765 q 376 772 386 772 q 356 769 369 772 l 169 701 l 157 726 l 424 925 l 592 801 l 660 906 q 661 911 661 907 q 653 919 661 917 l 554 940 l 554 958 l 846 983 l 867 965 l 676 678 m 544 -175 l 386 -281 l 321 -207 l 389 -153 l 443 -210 l 485 -182 l 388 -68 l 388 14 l 269 218 l 419 326 l 508 165 l 714 328 l 756 267 l 424 -7 l 549 -142 l 544 -175 z "},"":{"ha":919,"x_min":97,"x_max":897,"o":"m 632 432 l 282 272 l 449 204 l 872 385 l 856 200 l 415 3 l 133 126 q 97 189 97 156 q 113 232 97 210 q 164 271 128 254 l 374 371 l 285 413 l 464 518 l 632 432 m 376 593 q 365 576 365 582 q 379 561 365 567 l 438 532 l 258 425 l 161 472 q 150 492 150 483 q 164 514 150 504 q 424 764 424 743 l 424 765 q 406 772 417 772 q 397 772 401 772 q 385 769 392 771 l 200 701 l 186 726 l 453 925 l 597 796 l 376 593 m 707 678 q 700 658 700 661 q 728 642 700 642 l 739 642 l 736 619 q 526 651 526 619 q 531 661 526 654 l 689 906 q 690 911 690 907 q 683 919 690 917 l 583 940 l 585 958 l 876 983 l 897 965 l 707 678 m 757 1014 l 411 1014 l 464 1093 l 422 1108 l 440 1140 l 757 1014 z "},"":{"ha":919,"x_min":97,"x_max":897,"o":"m 632 432 l 282 272 l 449 204 l 872 385 l 856 200 l 415 3 l 133 126 q 97 189 97 156 q 113 232 97 210 q 164 271 128 254 l 374 371 l 285 413 l 464 518 l 632 432 m 376 593 q 365 576 365 582 q 379 561 365 567 l 438 532 l 258 425 l 161 472 q 150 492 150 483 q 164 514 150 504 q 424 764 424 743 l 424 765 q 406 772 417 772 q 397 772 401 772 q 385 769 392 771 l 200 701 l 186 726 l 453 925 l 597 796 l 376 593 m 707 678 q 700 658 700 661 q 728 642 700 642 l 739 642 l 736 619 q 526 651 526 619 q 531 661 526 654 l 689 906 q 690 911 690 907 q 683 919 690 917 l 583 940 l 585 958 l 876 983 l 897 965 l 707 678 m 399 1014 l 715 1140 l 733 1108 l 692 1093 l 744 1014 l 399 1014 z "},"":{"ha":919,"x_min":97,"x_max":897,"o":"m 632 432 l 282 272 l 449 204 l 872 385 l 856 200 l 415 3 l 133 126 q 105 154 113 136 q 97 189 97 172 q 113 232 97 210 q 164 271 128 254 l 374 371 l 285 413 l 464 518 l 632 432 m 376 593 q 365 576 365 582 q 379 561 365 567 l 438 532 l 258 425 l 161 472 q 150 492 150 478 q 164 514 150 504 q 362 688 300 622 q 424 764 424 753 l 424 765 q 406 772 417 772 q 397 772 401 772 q 385 769 392 771 l 200 701 l 186 726 l 453 925 l 597 796 l 376 593 m 707 678 q 700 658 700 661 q 728 642 700 642 l 739 642 l 736 619 q 526 651 526 619 q 531 661 526 654 l 689 906 q 690 911 690 907 q 683 919 690 917 l 583 940 l 585 958 l 876 983 l 897 965 l 707 678 m 356 1014 l 550 1133 l 742 1014 l 356 1014 z "},"":{"ha":919,"x_min":97,"x_max":897,"o":"m 632 432 l 282 272 l 449 204 l 872 385 l 856 200 l 415 3 l 133 126 q 105 154 113 136 q 97 189 97 172 q 113 232 97 210 q 164 271 128 254 l 374 371 l 285 413 l 464 518 l 632 432 m 376 593 q 365 576 365 582 q 379 561 365 567 l 438 532 l 258 425 l 161 472 q 150 492 150 483 q 164 514 150 504 q 424 764 424 743 l 424 765 q 406 772 417 772 q 397 772 401 772 q 385 769 392 771 l 200 701 l 186 726 l 453 925 l 597 796 l 376 593 m 707 678 q 700 658 700 661 q 728 642 700 642 l 739 642 l 736 619 q 526 651 526 619 q 531 661 526 654 l 689 906 q 690 911 690 907 q 683 919 690 917 l 583 940 l 585 958 l 876 983 l 897 965 l 707 678 m 717 1108 l 706 981 l 558 981 l 571 1108 l 717 1108 m 461 981 l 319 981 l 332 1108 l 472 1108 l 461 981 z "},"":{"ha":697,"x_min":115,"x_max":657,"o":"m 301 581 l 492 581 l 449 86 l 499 86 l 528 100 l 599 236 l 615 225 l 560 0 l 131 0 l 115 226 l 135 238 l 182 101 l 207 88 l 258 88 l 301 581 m 306 607 l 325 829 l 274 829 l 246 815 l 174 679 l 157 690 l 211 914 l 642 914 l 657 689 l 638 678 l 592 814 l 564 828 l 513 828 l 494 607 l 306 607 m 615 1014 l 269 1014 l 321 1093 l 279 1108 l 297 1140 l 615 1014 z "},"":{"ha":697,"x_min":115,"x_max":657,"o":"m 492 581 l 449 86 l 499 86 l 528 100 l 599 236 l 615 225 l 560 0 l 131 0 l 115 226 l 135 238 l 182 101 l 207 88 l 258 88 l 301 581 l 492 581 m 325 829 l 274 829 l 246 815 l 174 679 l 157 690 l 211 914 l 642 914 l 657 689 l 638 678 l 592 814 l 564 828 l 513 828 l 494 607 l 304 607 l 325 829 m 271 1014 l 588 1140 l 606 1108 l 564 1093 l 617 1014 l 271 1014 z "},"":{"ha":697,"x_min":115,"x_max":657,"o":"m 492 581 l 449 86 l 499 86 l 528 100 l 599 236 l 615 225 l 560 0 l 131 0 l 115 226 l 135 238 l 182 101 l 207 88 l 258 88 l 301 581 l 492 581 m 325 829 l 274 829 l 246 815 l 174 679 l 157 690 l 211 914 l 642 914 l 657 689 l 638 678 l 592 814 l 564 828 l 513 828 l 494 607 l 304 607 l 325 829 m 243 986 l 438 1104 l 629 986 l 243 986 z "},"":{"ha":697,"x_min":115,"x_max":657,"o":"m 492 581 l 449 86 l 499 86 l 528 100 l 599 236 l 615 225 l 560 0 l 131 0 l 115 226 l 135 238 l 182 101 l 207 88 l 258 88 l 301 581 l 492 581 m 325 829 l 274 829 l 246 815 l 174 679 l 157 690 l 211 914 l 642 914 l 657 689 l 638 678 l 592 814 l 564 828 l 513 828 l 494 607 l 304 607 l 325 829 m 628 1063 l 617 935 l 469 935 l 482 1063 l 628 1063 m 372 935 l 231 935 l 243 1063 l 383 1063 l 372 935 z "},"":{"ha":1433,"x_min":103,"x_max":1450,"o":"m 971 193 l 1042 238 l 981 188 l 971 193 m 592 603 q 585 582 585 589 q 613 567 585 567 l 914 567 l 882 206 l 981 124 l 1264 357 l 1099 506 l 1243 638 l 1450 463 l 1446 407 l 907 -43 l 707 72 l 746 518 q 411 554 411 518 q 413 556 413 554 q 414 560 413 557 l 572 806 q 574 811 574 807 q 565 818 574 815 l 467 839 l 468 858 l 758 882 l 779 864 l 592 603 m 1182 893 l 1040 864 l 1019 825 l 1224 653 l 1081 522 l 776 803 l 889 915 l 1183 915 l 1182 893 m 261 413 l 283 319 l 103 426 l 107 450 l 332 554 l 276 471 l 692 471 l 658 82 l 601 79 l 632 413 l 261 413 z "},"":{"ha":1021,"x_min":103,"x_max":924,"o":"m 922 922 q 924 859 924 890 q 924 796 924 828 q 917 582 924 688 q 894 371 910 476 l 708 403 q 750 790 750 588 l 750 808 q 425 329 613 739 l 401 40 l 479 -46 l 454 -68 q 292 -17 379 -33 q 103 1 204 0 l 104 21 q 184 56 158 36 q 213 97 210 75 q 256 590 240 408 q 271 828 271 771 q 268 850 271 847 l 182 894 l 183 915 l 454 943 l 478 922 l 442 511 q 726 925 571 796 l 899 943 l 922 922 m 889 343 q 844 135 871 238 q 782 -71 818 33 q 467 32 657 1 l 478 64 q 510 59 496 61 q 538 57 525 57 q 604 93 600 57 q 703 376 668 229 l 889 343 m 761 1129 l 631 976 l 529 1043 l 383 969 l 524 1106 l 625 1051 l 761 1129 z "},"":{"ha":864,"x_min":126,"x_max":806,"o":"m 593 181 q 522 410 550 288 q 494 644 494 532 q 505 765 494 708 q 538 865 515 821 l 432 858 l 378 228 l 185 228 q 219 627 207 479 q 231 825 231 775 q 228 850 231 847 l 142 894 l 143 943 l 806 943 l 792 786 q 710 719 735 775 q 686 581 686 663 q 710 401 686 493 q 772 235 733 310 q 793 146 793 194 q 770 56 793 90 q 708 1 747 21 q 619 -25 669 -18 q 514 -32 569 -32 q 388 -22 449 -32 q 277 3 328 -12 q 188 36 226 18 q 126 72 149 54 q 130 90 128 81 q 133 108 132 99 l 143 108 q 160 118 153 113 q 178 131 168 124 l 185 203 l 376 203 l 365 85 q 399 63 375 71 q 451 56 424 56 q 503 62 476 56 q 551 79 529 68 q 585 108 572 90 q 599 149 599 125 q 593 181 599 164 m 672 1014 l 326 1014 l 379 1093 l 338 1108 l 356 1140 l 672 1014 z "},"":{"ha":864,"x_min":126,"x_max":806,"o":"m 593 181 q 522 410 550 288 q 494 644 494 532 q 505 765 494 708 q 538 865 515 821 l 432 858 l 378 228 l 185 228 q 219 627 207 479 q 231 825 231 775 q 228 850 231 847 l 142 894 l 143 943 l 806 943 l 792 786 q 710 719 735 775 q 686 581 686 663 q 710 401 686 493 q 772 235 733 310 q 793 146 793 194 q 770 56 793 90 q 708 1 747 21 q 619 -25 669 -18 q 514 -32 569 -32 q 388 -22 449 -32 q 277 3 328 -12 q 188 36 226 18 q 126 72 149 54 q 130 90 128 81 q 133 108 132 99 q 159 118 150 113 q 178 131 168 124 l 185 203 l 376 203 l 365 85 q 399 63 375 71 q 451 56 424 56 q 503 62 476 56 q 551 79 529 68 q 585 108 572 90 q 599 149 599 125 q 593 181 599 164 m 319 1014 l 638 1140 l 656 1108 l 614 1093 l 665 1014 l 319 1014 z "},"":{"ha":864,"x_min":126,"x_max":806,"o":"m 593 181 q 522 410 550 288 q 494 644 494 532 q 505 765 494 708 q 538 865 515 821 l 432 858 l 378 228 l 185 228 q 219 627 207 479 q 231 825 231 775 q 228 850 231 847 l 142 894 l 143 943 l 806 943 l 792 786 q 710 719 735 775 q 686 581 686 663 q 710 401 686 493 q 772 235 733 310 q 793 146 793 194 q 770 56 793 90 q 708 1 747 21 q 619 -25 669 -18 q 514 -32 569 -32 q 388 -22 449 -32 q 277 3 328 -12 q 188 36 226 18 q 126 72 149 54 q 130 90 128 81 q 133 108 132 99 l 143 108 q 160 118 153 113 q 178 131 168 124 l 185 203 l 376 203 l 365 85 q 399 63 375 71 q 451 56 424 56 q 503 62 476 56 q 551 79 529 68 q 585 108 572 90 q 599 149 599 125 q 593 181 599 164 m 286 986 l 481 1104 l 672 986 l 286 986 z "},"":{"ha":864,"x_min":126,"x_max":806,"o":"m 593 181 q 522 410 550 288 q 494 644 494 532 q 505 765 494 708 q 538 865 515 821 l 432 858 l 378 228 l 185 228 q 219 627 207 479 q 231 825 231 775 q 228 850 231 847 l 142 894 l 143 943 l 806 943 l 792 786 q 710 719 735 775 q 686 581 686 663 q 710 401 686 493 q 772 235 733 310 q 793 146 793 194 q 770 56 793 90 q 708 1 747 21 q 619 -25 669 -18 q 514 -32 569 -32 q 388 -22 449 -32 q 277 3 328 -12 q 188 36 226 18 q 126 72 149 54 q 130 90 128 81 q 133 108 132 99 l 143 108 q 160 118 153 113 q 178 131 168 124 l 185 203 l 376 203 l 365 85 q 399 63 375 71 q 451 56 424 56 q 503 62 476 56 q 551 79 529 68 q 585 108 572 90 q 599 149 599 125 q 593 181 599 164 m 669 1129 l 539 976 l 438 1043 l 293 969 l 432 1106 l 533 1051 l 669 1129 z "},"":{"ha":864,"x_min":126,"x_max":806,"o":"m 593 181 q 522 410 550 288 q 494 644 494 532 q 505 765 494 708 q 538 865 515 821 l 432 858 l 378 228 l 185 228 q 219 627 207 479 q 231 825 231 775 q 228 850 231 847 l 142 894 l 143 943 l 806 943 l 792 786 q 710 719 735 775 q 686 581 686 663 q 710 401 686 493 q 772 235 733 310 q 793 146 793 194 q 770 56 793 90 q 708 1 747 21 q 619 -25 669 -18 q 514 -32 569 -32 q 388 -22 449 -32 q 277 3 328 -12 q 188 36 226 18 q 126 72 149 54 q 130 90 128 81 q 133 108 132 99 l 143 108 q 160 118 153 113 q 178 131 168 124 l 185 203 l 376 203 l 365 85 q 399 63 375 71 q 451 56 424 56 q 503 62 476 56 q 551 79 529 68 q 585 108 572 90 q 599 149 599 125 q 593 181 599 164 m 685 1099 l 672 971 l 526 971 l 538 1099 l 685 1099 m 428 971 l 288 971 l 299 1099 l 440 1099 l 428 971 z "},"":{"ha":864,"x_min":126,"x_max":806,"o":"m 593 181 q 547 317 567 247 q 511 457 526 386 l 386 342 l 378 228 l 185 228 q 219 627 207 479 q 231 825 231 775 q 228 850 231 847 l 142 894 l 143 943 l 806 943 l 792 786 q 710 719 735 775 q 686 581 686 663 q 710 401 686 493 q 772 235 733 310 q 793 146 793 194 q 770 56 793 90 q 708 1 747 21 q 619 -25 669 -18 q 514 -32 569 -32 q 388 -22 449 -32 q 277 3 328 -12 q 188 36 226 18 q 126 72 149 54 q 130 90 128 81 q 133 108 132 99 l 143 108 q 160 118 153 113 q 178 131 168 124 l 185 203 l 376 203 l 365 85 q 399 63 375 71 q 451 56 424 56 q 503 62 476 56 q 551 79 529 68 q 585 108 572 90 q 599 149 599 125 q 593 181 599 164 m 496 583 q 494 597 494 590 q 494 608 494 603 l 494 633 q 504 762 494 704 q 538 865 514 819 l 432 858 l 400 494 l 496 583 z "},"":{"ha":826,"x_min":76,"x_max":863,"o":"m 768 850 q 754 833 757 844 l 693 131 q 722 108 708 115 l 732 108 l 732 90 q 733 72 732 75 q 665 35 707 54 q 571 1 624 17 q 456 -24 518 -14 q 329 -33 394 -33 q 243 -29 288 -33 q 161 -10 199 -25 q 100 33 124 4 q 76 111 76 61 q 118 235 76 176 q 176 342 150 279 q 226 471 203 404 l 396 403 q 356 319 378 358 q 316 245 335 279 q 285 183 297 211 q 272 138 272 156 q 285 101 272 117 q 317 76 297 86 q 361 60 338 65 q 406 56 385 56 q 460 63 435 56 q 497 85 486 71 l 571 922 l 597 943 l 863 915 l 861 894 l 768 850 m 232 497 q 263 628 253 564 q 272 747 272 692 q 256 855 272 814 q 203 903 239 896 l 207 943 l 431 915 q 465 842 454 883 q 475 751 475 801 q 456 598 475 681 q 406 428 438 515 l 232 497 m 665 1014 l 319 1014 l 372 1093 l 331 1108 l 349 1140 l 665 1014 z "},"":{"ha":826,"x_min":76,"x_max":863,"o":"m 768 850 q 754 833 757 844 l 693 131 q 722 108 708 115 l 732 108 l 732 90 q 733 72 732 75 q 665 35 707 54 q 571 1 624 17 q 456 -24 518 -14 q 329 -33 394 -33 q 243 -29 288 -33 q 161 -10 199 -25 q 100 33 124 4 q 76 111 76 61 q 118 235 76 176 q 176 342 150 279 q 226 471 203 404 l 396 403 q 356 319 378 358 q 316 245 335 279 q 285 183 297 211 q 272 138 272 156 q 285 101 272 117 q 317 76 297 86 q 361 60 338 65 q 406 56 385 56 q 460 63 435 56 q 497 85 486 71 l 571 922 l 597 943 l 863 915 l 861 894 l 768 850 m 232 497 q 263 628 253 564 q 272 747 272 692 q 256 855 272 814 q 203 903 239 896 l 207 943 l 431 915 q 465 842 454 883 q 475 751 475 801 q 456 598 475 681 q 406 428 438 515 l 232 497 m 315 1014 l 633 1140 l 651 1108 l 610 1093 l 663 1014 l 315 1014 z "},"":{"ha":826,"x_min":76,"x_max":863,"o":"m 768 850 q 754 833 757 844 l 693 131 q 722 108 708 115 l 732 108 l 732 90 q 733 72 732 75 q 665 35 707 54 q 571 1 624 17 q 456 -24 518 -14 q 329 -33 394 -33 q 243 -29 288 -33 q 161 -10 199 -25 q 100 33 124 4 q 76 111 76 61 q 118 235 76 176 q 176 342 150 279 q 226 471 203 404 l 396 403 q 356 319 378 358 q 316 245 335 279 q 285 183 297 211 q 272 138 272 156 q 285 101 272 117 q 317 76 297 86 q 361 60 338 65 q 406 56 385 56 q 460 63 435 56 q 497 85 486 71 l 571 922 l 597 943 l 863 915 l 861 894 l 768 850 m 232 497 q 263 628 253 564 q 272 747 272 692 q 256 855 272 814 q 203 903 239 896 l 207 943 l 431 915 q 465 842 454 883 q 475 751 475 801 q 456 598 475 681 q 406 428 438 515 l 232 497 m 306 986 l 500 1104 l 692 986 l 306 986 z "},"":{"ha":826,"x_min":76,"x_max":863,"o":"m 768 850 q 754 833 757 844 l 693 131 q 722 108 708 115 l 732 108 l 732 90 q 733 72 732 75 q 665 35 707 54 q 571 1 624 17 q 456 -24 518 -14 q 329 -33 394 -33 q 243 -29 288 -33 q 161 -10 199 -25 q 100 33 124 4 q 76 111 76 61 q 118 235 76 176 q 176 342 150 279 q 226 471 203 404 l 396 403 q 356 319 378 358 q 316 245 335 279 q 285 183 297 211 q 272 138 272 156 q 285 101 272 117 q 317 76 297 86 q 361 60 338 65 q 406 56 385 56 q 460 63 435 56 q 497 85 486 71 l 571 922 l 597 943 l 863 915 l 861 894 l 768 850 m 232 497 q 263 628 253 564 q 272 747 272 692 q 256 855 272 814 q 203 903 239 896 l 207 943 l 431 915 q 465 842 454 883 q 475 751 475 801 q 456 598 475 681 q 406 428 438 515 l 232 497 m 696 1099 l 685 971 l 538 971 l 550 1099 l 696 1099 m 440 971 l 299 971 l 311 1099 l 451 1099 l 440 971 z "},"":{"ha":836,"x_min":69,"x_max":879,"o":"m 783 850 q 771 833 772 843 l 708 140 q 739 118 725 122 l 750 118 l 750 81 q 683 44 725 63 q 588 12 642 26 q 473 -12 535 -3 q 346 -22 411 -22 q 257 -18 306 -22 q 167 -1 208 -14 q 97 37 125 13 q 69 101 69 61 q 85 157 69 128 q 113 189 92 171 q 158 224 135 207 q 198 259 181 242 q 215 289 215 276 q 205 303 215 297 q 168 313 194 310 l 171 354 l 396 321 q 403 297 403 310 q 384 256 403 278 q 344 212 365 235 q 303 165 322 189 q 285 119 285 142 l 285 117 q 329 75 290 89 q 411 61 368 61 q 471 69 443 61 q 513 94 499 76 l 539 386 q 465 376 504 381 q 388 372 426 372 q 296 376 342 372 q 213 395 250 381 q 151 438 175 410 q 128 514 128 465 q 142 588 128 554 q 182 660 156 622 l 194 678 l 354 614 q 333 577 342 597 q 324 540 324 557 q 338 498 324 517 q 375 467 353 479 q 424 447 397 454 q 475 440 450 440 q 516 446 497 440 q 546 464 535 451 l 586 922 l 613 943 l 879 915 l 878 894 l 783 850 m 210 700 q 276 791 251 754 q 301 850 301 828 q 282 881 301 869 q 219 901 263 893 l 222 943 l 446 915 q 481 893 469 904 q 492 865 492 882 q 459 785 492 839 q 368 636 426 732 l 210 700 m 328 1014 l 644 1140 l 664 1108 l 621 1093 l 674 1014 l 328 1014 z "},"":{"ha":836,"x_min":69,"x_max":879,"o":"m 783 850 q 771 833 772 843 l 708 140 q 739 118 725 122 l 750 118 l 750 81 q 683 44 725 63 q 588 12 642 26 q 473 -12 535 -3 q 346 -22 411 -22 q 257 -18 306 -22 q 167 -1 208 -14 q 97 37 125 13 q 69 101 69 61 q 85 157 69 128 q 113 189 92 171 q 158 224 135 207 q 198 259 181 242 q 215 289 215 276 q 205 303 215 297 q 168 313 194 310 l 171 354 l 396 321 q 403 297 403 310 q 384 256 403 278 q 344 212 365 235 q 303 165 322 189 q 285 119 285 142 l 285 117 q 329 75 290 89 q 411 61 368 61 q 471 69 443 61 q 513 94 499 76 l 539 386 q 465 376 504 381 q 388 372 426 372 q 296 376 342 372 q 213 395 250 381 q 151 438 175 410 q 128 514 128 465 q 142 588 128 554 q 182 660 156 622 l 194 678 l 354 614 q 333 577 342 597 q 324 540 324 557 q 338 498 324 517 q 375 467 353 479 q 424 447 397 454 q 475 440 450 440 q 516 446 497 440 q 546 464 535 451 l 586 922 l 613 943 l 879 915 l 878 894 l 783 850 m 210 700 q 276 791 251 754 q 301 850 301 828 q 282 881 301 869 q 219 901 263 893 l 222 943 l 446 915 q 481 893 469 904 q 492 865 492 882 q 459 785 492 839 q 368 636 426 732 l 210 700 m 711 1099 l 700 971 l 554 971 l 565 1099 l 711 1099 m 456 971 l 315 971 l 326 1099 l 468 1099 l 456 971 z "},"":{"ha":697,"x_min":115,"x_max":657,"o":"m 301 581 l 492 581 l 449 86 l 499 86 l 528 100 l 599 236 l 615 225 l 560 0 l 131 0 l 115 226 l 135 238 l 182 101 l 207 88 l 258 88 l 301 581 m 304 607 l 325 829 l 274 829 l 246 815 l 174 679 l 157 690 l 211 915 l 642 915 l 657 689 l 638 678 l 592 814 l 564 828 l 513 828 l 494 607 l 304 607 z "},"":{"ha":2094,"x_min":100,"x_max":2014,"o":"m 1750 432 l 1400 272 l 1567 204 l 1990 385 l 1972 200 l 1533 3 l 1317 97 l 1313 86 q 1269 21 1299 44 q 1202 -15 1240 -3 q 1122 -30 1164 -26 q 1042 -33 1081 -33 q 917 -24 976 -33 q 806 1 857 -14 q 717 35 756 17 q 656 72 678 54 q 659 90 657 81 q 663 108 661 99 l 672 108 q 690 118 682 113 q 707 131 697 124 l 733 450 l 925 450 l 894 85 q 927 63 903 71 q 981 56 951 56 q 1029 62 1003 56 q 1077 79 1056 68 q 1113 108 1099 90 q 1128 149 1128 125 q 1121 181 1128 160 q 1051 413 1079 290 q 1024 649 1024 535 q 1034 766 1024 711 q 1067 865 1044 821 l 961 858 l 928 476 l 736 476 q 747 625 743 560 q 750 740 750 690 q 728 875 750 867 q 521 838 521 868 q 522 835 521 836 q 522 833 522 835 l 664 572 l 640 554 l 354 578 l 356 597 q 467 631 468 621 l 351 876 q 343 899 343 889 q 379 918 343 915 l 1335 943 l 1319 786 q 1241 717 1265 775 q 1217 576 1217 660 q 1234 422 1217 501 q 1282 271 1251 343 l 1490 371 l 1403 413 l 1581 518 l 1750 432 m 1493 593 q 1483 576 1483 583 q 1496 561 1483 567 l 1556 532 l 1376 425 l 1278 472 q 1268 492 1268 482 q 1281 514 1268 503 q 1540 764 1540 743 l 1540 765 q 1524 772 1533 772 q 1503 769 1517 772 l 1317 701 l 1304 726 l 1571 925 l 1714 796 l 1493 593 m 1824 678 q 1817 658 1817 661 q 1844 642 1817 642 l 1857 642 l 1854 619 q 1643 651 1643 619 q 1647 661 1643 654 l 1807 906 q 1808 911 1808 907 q 1800 919 1808 917 l 1701 940 l 1703 958 l 1993 983 l 2014 965 l 1824 678 m 244 450 l 100 563 l 110 583 l 307 615 l 269 565 l 703 504 l 700 450 l 244 519 l 244 450 z "},"":{"ha":1536,"x_min":126,"x_max":1475,"o":"m 1210 432 l 860 272 l 1028 204 l 1450 385 l 1433 200 l 993 3 l 786 94 q 746 25 775 50 q 678 -13 717 0 q 595 -30 639 -26 q 513 -33 551 -33 q 388 -24 447 -33 q 277 1 328 -14 q 188 35 226 17 q 126 72 149 54 q 130 90 128 81 q 133 108 132 99 l 143 108 q 160 118 153 113 q 178 131 168 124 l 185 203 l 376 203 l 365 85 q 399 63 375 71 q 451 56 424 56 q 501 62 475 56 q 549 79 528 68 q 585 108 571 90 q 599 149 599 125 q 593 181 599 164 q 523 413 551 290 q 494 649 494 535 q 505 766 494 711 q 538 865 515 821 l 432 858 l 378 228 l 185 228 q 219 627 207 479 q 231 825 231 775 q 228 850 231 847 l 142 894 l 143 943 l 806 943 l 792 786 q 712 717 736 775 q 688 576 688 660 q 704 423 688 504 q 751 275 721 342 l 951 371 l 863 413 l 1042 518 l 1210 432 m 954 593 q 944 576 944 583 q 957 561 944 567 l 1015 532 l 838 425 l 739 472 q 729 492 729 482 q 742 514 729 503 q 1001 764 1001 743 l 1001 765 q 985 772 994 772 q 964 769 978 772 l 778 701 l 765 726 l 1032 925 l 1175 796 l 954 593 m 1285 678 q 1278 658 1278 661 q 1306 642 1278 642 l 1317 642 l 1315 619 q 1104 651 1104 619 q 1108 661 1104 654 l 1268 906 q 1269 911 1269 907 q 1261 919 1269 917 l 1163 940 l 1164 958 l 1454 983 l 1475 965 l 1285 678 z "},"":{"ha":1390,"x_min":103,"x_max":1422,"o":"m 415 615 q 424 625 424 617 l 310 874 q 300 897 300 888 q 336 915 300 915 l 1213 915 q 1207 919 1213 918 l 1108 940 l 1110 958 l 1401 983 l 1422 965 l 1231 678 q 1225 658 1225 665 q 1251 642 1225 642 l 1264 642 l 1261 619 q 1051 651 1051 619 q 1056 661 1051 654 l 1182 858 q 1022 831 1086 857 q 932 746 958 804 l 832 522 l 1244 522 q 1296 360 1278 435 q 1314 215 1314 286 l 1314 207 l 1139 249 q 1141 263 1140 254 q 1142 297 1142 272 q 1138 362 1142 328 q 1128 432 1135 396 l 667 432 l 642 461 l 767 814 l 771 863 l 756 867 q 605 865 660 867 q 522 858 550 863 q 488 848 494 854 q 481 833 481 842 l 621 569 l 599 551 l 313 576 l 314 594 l 415 615 m 1314 179 q 1263 0 1306 78 l 971 0 l 749 244 l 731 250 l 642 3 l 601 3 l 633 351 l 886 351 l 1089 129 q 1135 222 1122 165 l 1314 179 m 231 533 l 249 450 l 103 565 l 108 589 l 329 647 l 233 560 l 628 517 l 618 479 l 231 533 m 1300 1103 l 1106 985 l 914 1103 l 1300 1103 m 729 832 l 646 618 l 525 838 l 729 832 m 883 11 l 729 11 l 760 151 l 883 11 z "},"":{"ha":863,"x_min":75,"x_max":894,"o":"m 717 522 q 788 213 788 351 q 735 0 788 99 l 444 0 l 221 244 l 204 250 l 115 3 l 75 3 l 106 351 l 358 351 l 561 129 q 615 296 615 181 q 611 358 615 324 q 600 432 607 392 l 140 432 l 114 461 l 188 671 l 371 671 l 304 522 l 717 522 m 704 678 q 697 658 697 661 q 725 642 697 642 l 736 642 l 733 619 q 524 651 524 619 q 528 661 524 654 l 654 858 q 404 746 476 838 l 382 697 l 197 697 l 239 814 l 243 863 l 119 897 l 119 915 l 686 915 q 681 919 686 918 l 581 940 l 582 958 l 874 983 l 894 965 l 704 678 m 694 1103 l 500 985 l 308 1103 l 694 1103 z "},"":{"ha":1425,"x_min":144,"x_max":1468,"o":"m 921 511 q 984 457 943 474 q 1067 440 1025 440 q 1136 464 1114 440 l 1176 922 l 1203 943 l 1468 915 l 1468 894 q 1360 833 1363 844 l 1299 140 q 1329 118 1315 122 l 1339 118 l 1339 81 q 1274 44 1315 63 q 1178 10 1232 25 q 1063 -13 1125 -4 q 936 -22 1000 -22 q 847 -18 896 -22 q 757 -1 799 -14 q 688 37 715 13 q 660 101 660 61 q 675 157 660 128 q 703 189 682 171 q 748 224 725 207 q 788 259 771 242 q 806 289 806 276 q 795 303 806 297 q 758 313 785 310 l 761 354 l 986 321 q 993 297 993 310 q 974 256 993 278 q 934 212 956 235 q 894 165 913 189 q 875 119 875 142 l 875 117 q 919 75 881 89 q 1001 61 958 61 q 1061 69 1033 61 q 1103 94 1089 76 l 1129 386 q 1056 376 1094 381 q 978 372 1017 372 q 906 374 944 372 q 831 385 867 376 q 769 408 796 393 q 729 451 742 424 l 921 511 m 468 678 q 478 688 478 679 l 363 936 q 356 958 356 947 q 401 993 356 982 l 1036 915 q 1071 893 1060 904 q 1082 867 1082 882 q 1072 828 1082 851 q 1041 772 1061 806 q 992 693 1021 739 q 926 585 964 647 q 914 540 914 564 l 914 535 l 722 476 q 719 497 719 490 q 718 514 718 504 q 758 640 718 581 q 855 775 817 726 q 893 851 893 824 q 829 896 893 882 l 560 929 q 531 908 531 929 q 531 902 531 906 q 533 893 532 899 l 675 632 l 651 614 l 365 639 l 367 657 l 468 678 m 286 517 l 144 618 l 150 640 l 361 690 l 286 618 l 689 574 l 686 533 l 278 589 l 286 517 m 1321 1099 l 1310 971 l 1164 971 l 1175 1099 l 1321 1099 m 1065 971 l 925 971 l 936 1099 l 1076 1099 l 1065 971 z "},"":{"ha":554,"x_min":83,"x_max":469,"o":"m 469 986 l 83 986 l 278 1104 l 469 986 z "},"":{"ha":554,"x_min":83,"x_max":469,"o":"m 83 1103 l 469 1103 l 275 985 l 83 1103 z "},"":{"ha":515,"x_min":113,"x_max":403,"o":"m 113 1060 q 124 1115 113 1089 q 156 1162 136 1142 q 201 1194 175 1182 q 257 1206 228 1206 q 313 1194 286 1206 q 359 1162 339 1182 q 391 1115 379 1142 q 403 1060 403 1089 q 391 1004 403 1031 q 359 958 379 978 q 313 927 339 939 q 257 915 286 915 q 201 927 228 915 q 156 958 175 939 q 124 1004 136 978 q 113 1060 113 1031 m 179 1061 q 201 1006 179 1028 q 257 983 224 983 q 315 1006 292 983 q 338 1061 338 1028 q 315 1119 338 1096 q 257 1142 292 1142 q 201 1119 224 1142 q 179 1061 179 1096 z "},"":{"ha":574,"x_min":101,"x_max":479,"o":"m 343 1051 l 479 1129 l 349 976 l 247 1043 l 101 969 l 242 1106 l 343 1051 z "},"":{"ha":794,"x_min":129,"x_max":710,"o":"m 710 414 l 689 351 l 129 351 l 150 414 l 710 414 z "},"":{"ha":1094,"x_min":129,"x_max":985,"o":"m 985 414 l 964 351 l 129 351 l 150 414 l 985 414 z "},"":{"ha":440,"x_min":47,"x_max":411,"o":"m 290 715 q 47 1065 144 840 l 338 1065 l 340 1024 l 293 1003 q 411 719 317 856 l 290 715 z "},"":{"ha":464,"x_min":36,"x_max":381,"o":"m 381 1024 q 158 715 288 831 l 36 719 q 156 1003 132 854 l 94 1029 l 97 1065 l 378 1065 l 381 1024 z "},"":{"ha":713,"x_min":47,"x_max":686,"o":"m 290 715 q 47 1065 144 840 l 624 1065 l 628 1029 l 567 1003 q 686 719 590 854 l 564 715 q 340 1024 436 829 l 293 1003 q 411 719 317 856 l 290 715 z "},"":{"ha":735,"x_min":36,"x_max":675,"o":"m 311 719 q 429 1003 406 856 l 381 1024 q 158 715 288 831 l 36 719 q 156 1003 132 854 l 94 1029 l 97 1065 l 675 1065 q 432 715 578 840 l 311 719 z "},"":{"ha":753,"x_min":99,"x_max":650,"o":"m 396 656 l 650 525 l 629 300 l 344 164 l 99 293 l 119 525 l 396 656 z "},"":{"ha":1482,"x_min":99,"x_max":1401,"o":"m 111 176 l 272 251 l 419 176 l 407 46 l 242 -33 l 99 42 l 111 176 m 603 176 l 764 251 l 911 176 l 899 46 l 733 -33 l 590 42 l 603 176 m 1093 176 l 1254 251 l 1401 176 l 1389 46 l 1224 -33 l 1081 42 l 1093 176 z "},"":{"ha":757,"x_min":114,"x_max":424,"o":"m 385 211 l 275 117 l 114 433 l 296 415 l 385 211 m 349 732 l 424 663 l 310 442 l 143 460 l 349 732 z "},"":{"ha":753,"x_min":118,"x_max":419,"o":"m 267 740 l 419 440 l 246 460 l 157 646 l 267 740 m 193 125 l 118 194 l 239 431 l 408 411 l 193 125 z "},"":{"ha":861,"x_min":96,"x_max":769,"o":"m 736 435 q 744 406 742 419 q 718 404 733 406 q 688 398 703 403 q 663 384 674 393 q 653 361 653 375 q 659 294 653 336 q 679 201 665 251 q 715 99 693 151 q 769 0 738 46 l 153 0 l 158 35 l 168 35 q 185 45 178 39 q 203 57 193 51 l 228 346 l 163 292 l 96 374 l 240 494 l 258 696 l 450 696 l 447 668 l 596 793 l 663 710 l 435 519 l 394 67 q 526 42 428 42 l 547 42 q 568 43 561 42 q 525 104 543 67 q 495 185 507 142 q 477 273 483 228 q 471 356 471 318 q 476 415 471 393 l 736 435 m 271 836 q 260 850 271 843 l 174 894 l 175 915 l 557 931 l 557 889 q 558 864 557 871 l 464 858 l 451 722 l 260 722 l 271 833 l 271 836 z "},"":{"ha":861,"x_min":96,"x_max":769,"o":"m 736 435 q 744 406 742 419 q 718 404 733 406 q 688 398 703 403 q 663 384 674 393 q 653 361 653 375 q 659 294 653 336 q 679 201 665 251 q 715 99 693 151 q 769 0 738 46 l 153 0 l 158 35 l 168 35 q 185 45 178 39 q 203 57 193 51 l 228 346 l 163 292 l 96 374 l 240 494 l 258 696 l 450 696 l 447 668 l 596 793 l 663 710 l 435 519 l 394 67 q 526 42 428 42 l 547 42 q 568 43 561 42 q 525 104 543 67 q 495 185 507 142 q 477 273 483 228 q 471 356 471 318 q 476 415 471 393 l 736 435 m 271 836 q 260 850 271 843 l 174 894 l 175 915 l 557 931 l 557 889 q 558 864 557 871 l 464 858 l 451 722 l 260 722 l 271 833 l 271 836 z "},"":{"ha":956,"x_min":115,"x_max":964,"o":"m 293 479 l 325 829 l 274 829 l 246 815 l 174 679 l 157 690 l 211 915 l 642 915 l 657 689 l 638 678 l 592 814 l 564 828 l 513 828 l 501 693 l 964 475 l 958 443 l 460 214 l 449 86 l 499 86 l 528 100 l 599 236 l 615 225 l 560 0 l 131 0 l 115 226 l 135 238 l 182 101 l 207 88 l 258 88 l 290 453 l 481 453 l 472 325 l 725 431 l 489 550 l 483 479 l 293 479 z "},"":{"ha":956,"x_min":115,"x_max":964,"o":"m 293 479 l 325 829 l 274 829 l 246 815 l 174 679 l 157 690 l 211 915 l 642 915 l 657 689 l 638 678 l 592 814 l 564 828 l 513 828 l 501 693 l 964 475 l 958 443 l 460 214 l 449 86 l 499 86 l 528 100 l 599 236 l 615 225 l 560 0 l 131 0 l 115 226 l 135 238 l 182 101 l 207 88 l 258 88 l 290 453 l 481 453 l 472 325 l 725 431 l 489 550 l 483 479 l 293 479 z "}}}
